<?xml version="1.0" standalone="no"?>
<!DOCTYPE svg PUBLIC "-//W3C//DTD SVG 20010904//EN"
 "http://www.w3.org/TR/2001/REC-SVG-20010904/DTD/svg10.dtd">
<svg version="1.0" xmlns="http://www.w3.org/2000/svg"
 width="1788.000000pt" height="1788.000000pt" viewBox="0 0 1788.000000 1788.000000"
 preserveAspectRatio="xMidYMid meet">
<metadata>
Created by potrace 1.14, written by Peter Selinger 2001-2017
</metadata>
<g transform="translate(0.000000,1788.000000) scale(0.100000,-0.100000)"
fill="#000000" stroke="none">
<path d="M410 11638 c0 -3 -9 -4 -20 -1 -12 3 -22 0 -25 -9 -3 -8 -7 -1226 -8
-2707 -2 -2685 -2 -2692 18 -2696 11 -2 248 -3 528 -3 411 1 509 4 518 15 9 9
8 13 0 13 -9 0 -9 5 -1 20 8 14 8 20 0 20 -8 0 -8 6 0 20 6 11 7 20 3 20 -9 0
-8 88 1 97 3 4 1 12 -5 20 -6 7 -7 13 -2 13 5 0 6 24 3 55 -3 30 -3 61 1 67 4
7 3 18 -3 25 -6 7 -6 13 -1 13 5 0 6 24 3 55 -3 30 -3 61 1 67 4 7 3 18 -3 25
-6 7 -6 13 -1 13 5 0 6 24 3 55 -3 30 -3 61 1 67 4 7 3 18 -3 25 -6 7 -6 13
-1 13 5 0 6 24 3 55 -3 30 -3 61 1 67 4 7 3 18 -3 25 -6 7 -6 13 -1 13 5 0 6
24 3 55 -3 30 -3 61 1 67 4 7 3 18 -3 25 -6 7 -6 13 -1 13 5 0 6 24 3 55 -3
30 -3 61 1 67 4 7 3 18 -3 25 -6 7 -6 13 -1 13 5 0 6 24 3 55 -3 30 -3 61 1
67 4 7 3 18 -3 25 -6 7 -7 13 -2 13 11 0 12 83 1 91 -11 8 54 109 70 109 7 0
12 6 10 13 -1 6 4 11 11 10 6 -2 12 4 12 12 0 8 5 15 11 15 5 0 8 4 4 9 -3 5
4 12 15 16 11 4 18 11 15 16 -4 5 1 9 9 9 9 0 15 4 13 8 -1 5 13 21 31 36 17
15 32 34 32 42 0 8 7 17 15 20 8 4 15 13 15 21 0 8 4 12 9 9 12 -8 34 21 26
33 -4 7 1 8 11 4 11 -4 15 -2 11 4 -3 5 5 20 19 32 14 12 22 27 18 33 -5 8 -2
9 9 5 15 -6 22 3 18 26 0 4 6 7 15 7 8 0 12 5 9 10 -3 6 1 10 9 10 8 0 18 9
21 20 3 11 11 20 16 20 6 0 7 5 4 10 -4 6 -1 9 7 8 7 -2 12 3 11 9 -2 7 2 12
9 10 7 -1 12 3 13 8 1 14 58 70 68 67 5 -1 6 2 3 7 -4 5 -2 12 4 16 6 4 7 11
4 17 -4 7 2 8 17 3 22 -7 23 -7 9 10 -9 11 -10 16 -2 11 6 -4 12 -3 12 3 0 5
16 26 35 45 19 20 35 41 35 47 0 5 5 7 10 4 6 -3 10 2 10 12 0 14 2 15 9 4 5
-7 14 -11 19 -7 7 4 9 -1 7 -14 -2 -11 0 -18 6 -15 5 4 9 -1 9 -10 0 -9 5 -13
10 -10 6 3 10 -1 10 -9 0 -9 5 -16 11 -16 5 0 7 -4 4 -10 -3 -5 2 -10 12 -11
10 0 13 -3 6 -6 -10 -3 -10 -7 0 -18 7 -7 15 -11 20 -8 4 2 7 1 6 -4 -4 -16
14 -43 28 -43 13 0 13 -2 2 -17 -8 -9 -9 -14 -3 -10 6 3 20 -4 32 -18 14 -16
17 -25 9 -29 -7 -2 -4 -5 6 -5 10 -1 16 -5 13 -9 -3 -5 4 -15 15 -22 10 -8 19
-20 19 -26 0 -6 7 -17 15 -24 8 -7 12 -17 8 -24 -3 -6 -3 -8 2 -4 7 7 35 -14
35 -28 0 -4 7 -12 16 -18 13 -10 20 -28 23 -59 1 -5 5 -6 10 -3 4 3 13 -6 20
-20 6 -14 16 -22 21 -19 5 3 7 0 4 -8 -3 -8 0 -18 7 -23 8 -5 10 -3 4 6 -5 9
-4 11 4 6 6 -4 9 -11 6 -16 -3 -5 1 -15 9 -23 8 -8 12 -17 9 -21 -4 -3 1 -6 9
-6 9 0 19 -7 22 -16 4 -10 2 -13 -7 -9 -6 4 4 -8 23 -26 19 -17 28 -28 20 -24
-8 4 -4 -3 10 -15 14 -12 18 -19 10 -15 -8 4 -3 -4 12 -17 15 -14 25 -28 21
-32 -3 -3 -1 -6 6 -6 8 0 11 -6 7 -17 -4 -10 -4 -14 0 -11 10 10 34 -18 34
-39 0 -15 2 -16 10 -3 8 13 10 12 10 -2 0 -10 5 -18 11 -18 5 0 7 -5 4 -10 -3
-6 1 -13 9 -16 9 -3 16 -12 16 -20 0 -8 5 -14 10 -14 6 0 10 -5 10 -11 0 -12
26 -40 32 -34 2 2 4 -5 5 -16 1 -11 17 -34 35 -50 24 -21 27 -28 13 -24 -17 5
-16 4 3 -7 12 -8 19 -17 16 -21 -4 -4 -2 -7 4 -7 6 0 14 -9 17 -20 3 -11 14
-20 23 -21 11 0 13 -2 4 -6 -9 -3 -5 -12 14 -28 17 -14 24 -27 19 -35 -5 -9
-4 -11 3 -6 7 4 12 2 12 -4 0 -17 26 -40 35 -32 5 4 5 2 2 -4 -4 -7 0 -17 8
-24 7 -6 11 -18 8 -26 -4 -10 0 -12 13 -7 14 5 16 3 11 -11 -5 -11 -3 -15 5
-10 8 5 9 2 5 -9 -4 -10 -2 -16 5 -14 7 1 12 -4 13 -11 0 -8 8 -19 18 -26 9
-7 17 -16 17 -20 0 -14 28 -35 36 -28 5 4 2 -2 -6 -12 -8 -11 -10 -17 -3 -13
7 4 14 -1 18 -12 3 -11 12 -22 20 -25 8 -3 15 -12 15 -20 0 -7 7 -16 15 -20 8
-3 15 -12 15 -21 0 -8 5 -15 11 -15 5 0 7 -4 4 -10 -3 -5 1 -10 10 -10 10 0
15 -6 12 -13 -3 -7 4 -19 14 -25 10 -7 19 -17 19 -23 0 -6 7 -17 15 -26 8 -8
13 -19 10 -24 -4 -5 3 -9 15 -9 12 0 19 -4 15 -9 -3 -5 -1 -12 5 -16 6 -4 7
-11 4 -17 -4 -6 -2 -8 4 -4 6 3 16 -7 24 -24 7 -16 19 -30 25 -30 7 0 12 -3
12 -7 -3 -21 2 -33 15 -33 9 0 13 -7 11 -19 -3 -15 1 -18 12 -14 11 5 14 3 9
-6 -5 -8 0 -18 13 -27 12 -9 19 -20 16 -25 -4 -5 1 -9 10 -9 9 0 14 -4 11 -9
-3 -4 3 -16 14 -26 11 -10 20 -24 20 -32 0 -7 7 -13 16 -13 8 0 12 -5 9 -10
-3 -6 8 -22 24 -36 17 -14 29 -30 25 -35 -3 -5 7 -20 22 -34 15 -14 23 -25 18
-25 -5 0 2 -10 16 -21 14 -11 18 -17 10 -13 -13 7 -13 5 -1 -9 7 -9 18 -14 25
-10 6 4 4 -2 -4 -12 -8 -10 -10 -16 -3 -12 7 5 17 -2 24 -15 7 -13 16 -26 21
-29 15 -9 1148 -7 1154 3 3 4 -2 11 -10 14 -9 3 -13 10 -10 15 3 5 -2 9 -11 9
-9 0 -13 5 -10 10 3 6 1 10 -4 10 -6 0 -11 7 -11 15 0 8 -9 20 -19 27 -10 6
-17 18 -14 25 3 7 -2 13 -11 13 -9 0 -16 8 -16 21 0 11 -4 17 -10 14 -6 -3
-10 1 -10 9 0 8 -10 22 -22 30 -12 9 -19 16 -15 16 5 0 1 7 -7 16 -9 8 -13 20
-10 26 4 7 2 8 -4 4 -12 -7 -35 27 -25 38 3 3 -1 6 -11 6 -9 0 -15 4 -11 9 3
5 -4 12 -14 16 -11 3 -18 12 -15 19 3 7 -4 20 -15 30 -11 10 -18 23 -15 28 3
4 0 7 -8 6 -7 -2 -12 3 -10 10 1 6 -2 12 -8 12 -5 0 -10 7 -10 15 0 8 -7 15
-15 15 -9 0 -12 6 -8 17 4 11 3 14 -5 9 -7 -4 -12 -2 -12 3 0 23 -2 26 -23 38
-12 6 -21 14 -19 17 1 3 2 13 2 22 0 13 -3 14 -14 5 -12 -10 -14 -9 -12 6 2
10 -4 25 -13 33 -30 29 -57 64 -41 55 8 -5 3 4 -12 20 -16 15 -28 32 -28 37 0
5 -6 6 -12 2 -8 -5 -7 0 2 11 8 10 10 16 4 12 -6 -3 -16 3 -24 13 -8 10 -17
17 -22 14 -4 -3 -6 1 -3 8 3 7 -6 25 -20 40 -14 15 -25 32 -25 38 0 5 -4 10
-10 10 -5 0 -10 7 -10 15 0 8 -6 15 -14 15 -10 0 -13 7 -11 20 2 11 0 18 -6
15 -5 -4 -9 1 -9 9 0 9 -7 16 -16 16 -10 0 -14 6 -11 14 4 9 -2 18 -15 22 -16
5 -18 8 -7 15 11 7 10 9 -5 9 -11 0 -16 3 -13 6 4 4 -3 15 -15 25 -11 11 -17
19 -12 19 5 0 1 5 -8 11 -10 5 -18 17 -18 24 0 8 -7 15 -15 15 -8 0 -15 5 -15
11 0 5 6 7 13 4 6 -4 4 0 -5 8 -10 8 -18 17 -18 21 0 3 -13 20 -30 38 -17 17
-30 35 -30 39 0 5 -10 19 -21 30 -17 17 -19 23 -8 31 10 6 7 7 -10 3 -15 -5
-21 -3 -17 3 4 6 -2 15 -11 21 -10 6 -13 11 -6 11 7 0 1 11 -13 25 -14 14 -22
30 -18 37 5 8 2 9 -10 5 -10 -4 -15 -3 -11 3 3 6 1 10 -6 10 -7 0 -10 3 -6 6
3 3 -6 17 -19 29 -14 13 -25 26 -25 29 2 18 -1 24 -21 34 -13 6 -17 11 -10 11
10 1 10 4 0 15 -7 8 -17 11 -22 8 -5 -3 -6 0 -3 5 4 6 -4 22 -18 37 -13 14
-21 26 -18 26 3 0 0 6 -6 13 -6 8 -7 17 -3 21 4 4 2 7 -3 6 -23 -5 -35 1 -35
16 0 9 -8 23 -18 32 -11 11 -12 13 -2 8 8 -5 -2 7 -22 26 -20 20 -34 38 -31
41 5 6 -4 19 -44 61 -15 16 -18 27 -11 34 7 7 4 10 -8 9 -11 -1 -18 4 -16 11
1 7 -5 15 -13 18 -8 4 -15 11 -15 16 0 6 -9 19 -21 29 -12 10 -18 23 -13 30 4
7 3 10 -2 7 -11 -7 -35 17 -27 26 3 3 -1 8 -10 12 -9 3 -14 14 -12 26 4 17 2
18 -12 6 -10 -8 -14 -8 -10 -1 4 6 -1 18 -10 25 -10 7 -19 20 -21 28 -2 8 -10
22 -18 31 -8 9 -11 19 -7 23 5 4 3 6 -2 4 -6 -2 -11 1 -12 5 -1 5 -11 17 -22
26 -12 10 -21 24 -21 30 0 7 -5 9 -12 5 -7 -4 -10 -4 -6 1 11 12 -11 47 -24
39 -8 -5 -9 -1 -5 10 5 13 1 19 -14 23 -16 4 -17 8 -7 14 10 7 11 9 0 9 -7 0
-10 5 -6 12 5 7 3 8 -5 4 -8 -5 -14 0 -18 13 -3 12 -9 21 -13 21 -5 0 -12 9
-15 20 -4 11 -10 18 -15 15 -5 -3 -7 4 -5 15 2 11 0 18 -6 15 -5 -4 -9 -1 -9
5 0 6 -5 8 -12 4 -6 -4 -8 -3 -4 4 3 6 -6 23 -21 38 -16 15 -19 21 -8 13 11
-8 4 4 -14 26 -19 22 -38 39 -43 38 -4 -2 -5 4 -2 12 4 8 -1 17 -10 21 -9 3
-14 10 -11 14 3 4 -2 11 -11 14 -9 3 -14 12 -11 19 2 6 -8 23 -22 36 -14 14
-31 34 -37 45 -6 12 -15 20 -20 19 -6 -1 -11 7 -11 19 -1 11 -13 30 -27 42
-14 12 -26 28 -26 35 0 8 -9 22 -21 32 -12 10 -18 23 -13 30 4 7 3 9 -4 5 -6
-3 -13 3 -17 14 -3 11 -10 20 -15 20 -5 0 -14 10 -21 21 -9 17 -8 20 2 14 9
-6 11 -3 6 9 -4 10 -3 15 3 11 6 -3 10 -1 10 5 0 6 5 8 10 5 6 -3 10 1 10 10
0 8 16 30 35 49 19 18 31 36 28 40 -4 3 -1 6 6 6 7 0 9 4 6 10 -4 6 1 7 11 3
13 -5 16 -3 11 10 -4 11 -2 14 9 10 8 -3 14 1 14 9 0 7 9 20 19 28 11 7 18 17
15 22 -3 4 0 8 6 8 6 0 9 4 5 9 -3 6 3 8 13 6 13 -2 19 2 18 13 0 9 5 16 11
15 7 -2 12 0 12 5 -3 20 3 32 17 32 8 0 12 5 9 10 -3 6 -1 10 5 10 6 0 8 5 4
12 -5 7 -2 9 9 5 12 -4 14 -2 10 10 -4 10 -2 14 4 10 6 -4 17 1 24 10 12 14
12 16 -1 9 -8 -4 -4 2 9 13 12 12 27 18 32 15 5 -3 6 2 3 10 -3 9 -1 16 5 16
6 0 11 7 11 16 0 8 5 12 10 9 6 -3 10 1 10 10 0 12 5 15 16 11 14 -5 15 -4 4
9 -10 12 -10 15 2 15 8 0 23 10 34 22 13 14 14 19 4 14 -8 -4 -4 2 10 13 14
11 28 21 32 21 4 0 5 9 3 19 -3 15 1 18 12 14 11 -4 14 -2 9 5 -4 7 -2 12 4
12 6 0 8 5 5 10 -4 6 -3 10 2 9 23 -4 32 2 26 18 -5 12 -3 14 7 8 10 -6 12 -4
7 9 -4 10 -3 15 3 11 5 -3 18 -1 27 5 16 10 16 11 -2 5 -12 -4 -2 11 25 35 25
23 39 39 33 35 -9 -4 -11 -1 -7 10 4 9 13 14 20 11 13 -5 18 6 15 27 0 4 6 7
15 7 8 0 12 5 9 10 -3 6 1 10 10 10 8 0 21 11 27 25 6 14 15 25 20 25 5 0 7 4
3 9 -3 5 4 12 15 16 11 4 17 11 14 17 -5 8 -1 9 10 5 14 -5 17 -3 12 8 -3 8
-1 15 5 15 6 0 7 5 3 12 -5 7 -2 9 9 5 12 -4 14 -2 10 10 -4 10 -2 14 4 10 6
-4 17 1 24 10 12 14 12 16 -1 8 -13 -8 -13 -7 -1 8 7 9 21 17 30 17 14 0 14 2
1 10 -13 9 -13 10 0 11 8 1 19 1 23 0 5 -1 6 3 2 9 -3 5 -1 10 4 10 6 0 10 6
8 13 -1 6 4 11 12 9 8 -2 11 3 8 13 -5 11 0 15 16 15 16 0 19 3 8 9 -11 7 -9
10 8 16 12 3 19 11 16 16 -4 5 1 9 9 9 9 0 15 4 13 9 -1 5 9 18 22 30 13 12
21 21 17 21 -4 0 10 17 31 37 21 20 31 33 23 29 -8 -4 -6 0 4 8 11 9 24 16 29
16 5 0 6 8 3 17 -4 10 -4 14 -1 11 9 -9 65 42 65 59 0 7 7 13 15 13 9 0 12 6
8 17 -4 11 -3 14 5 9 7 -4 12 -2 12 3 0 6 8 11 18 12 11 0 13 2 4 6 -10 4 -8
9 7 20 12 8 19 19 15 24 -3 5 0 8 8 7 7 -2 12 5 12 14 -1 10 1 17 5 16 19 -2
31 3 26 12 -3 6 1 10 9 10 10 0 13 6 9 17 -4 9 -2 14 3 11 5 -3 15 0 22 8 7 8
9 14 5 14 -4 1 3 7 17 15 14 8 21 14 16 15 -5 0 6 14 24 30 18 17 31 30 27 30
-4 0 2 9 13 20 11 11 25 20 30 20 6 0 10 9 10 21 0 11 5 17 10 14 6 -3 10 0
10 8 0 17 42 57 61 57 12 0 12 2 -1 10 -13 9 -7 14 13 11 7 -1 11 15 8 32 -1
5 3 6 9 2 5 -3 15 5 21 19 7 14 15 23 19 21 4 -3 16 5 26 18 19 21 19 21 -1 8
-11 -8 -2 3 20 24 22 21 34 34 26 30 -9 -5 -12 -4 -7 3 4 7 14 12 22 12 8 0
12 5 9 10 -3 6 1 10 9 10 10 0 13 6 9 18 -3 9 -3 14 1 10 11 -9 36 14 28 26
-3 5 2 6 12 3 10 -4 15 -3 11 3 -4 6 8 22 24 36 17 14 29 29 27 32 -5 10 20
32 28 25 6 -6 10 13 7 31 -1 5 5 6 14 2 9 -3 13 -2 10 4 -3 6 -1 10 6 10 7 0
10 3 6 6 -3 3 8 19 24 35 30 29 37 53 19 64 -5 3 -40 6 -77 6 -137 -1 -166 0
-174 5 -5 3 -9 1 -9 -4 0 -6 -14 -7 -32 -3 -18 4 -48 4 -65 0 -18 -3 -33 -4
-33 0 0 3 -35 5 -77 4 -98 -3 -113 -3 -138 -3 -11 0 -42 0 -68 0 -27 0 -53 2
-58 5 -5 4 -9 2 -9 -4 0 -6 -6 -8 -14 -5 -21 8 -106 10 -106 2 0 -4 -6 -5 -13
-3 -19 8 -187 11 -187 4 0 -3 -11 -4 -24 -2 -21 4 -40 -9 -41 -29 0 -5 -4 -8
-10 -7 -5 0 -12 -8 -16 -18 -3 -10 -12 -18 -20 -18 -8 0 -13 -8 -11 -19 2 -12
-1 -16 -9 -10 -9 5 -10 2 -6 -10 6 -14 3 -17 -8 -12 -9 3 -14 2 -11 -3 3 -5
-5 -17 -19 -27 -13 -10 -22 -21 -19 -26 3 -4 -2 -8 -10 -8 -9 0 -15 -3 -14 -7
2 -5 -1 -8 -5 -8 -11 0 -37 -48 -31 -57 3 -4 -3 -5 -13 -1 -10 3 -15 3 -11 -2
8 -9 -44 -65 -55 -58 -4 2 -7 1 -6 -4 3 -19 -2 -34 -10 -29 -12 8 -23 -23 -14
-37 4 -7 -1 -6 -10 2 -15 12 -17 12 -11 -3 4 -11 2 -16 -7 -14 -8 2 -13 -4
-13 -14 1 -10 -1 -17 -5 -16 -19 2 -31 -4 -29 -14 2 -7 -3 -12 -10 -10 -6 1
-11 -1 -11 -5 3 -20 -2 -34 -11 -28 -6 3 -10 -1 -10 -10 0 -9 -4 -13 -10 -10
-5 3 -10 -1 -10 -9 0 -15 -12 -21 -33 -17 -5 1 -6 -3 -3 -8 10 -16 -5 -40 -21
-34 -11 4 -14 2 -9 -6 5 -7 -7 -24 -28 -43 -19 -17 -33 -35 -30 -39 2 -4 -5
-13 -16 -19 -11 -6 -20 -17 -20 -25 0 -7 -5 -17 -12 -21 -7 -5 -9 -2 -4 7 4 8
-1 3 -11 -11 -10 -13 -26 -33 -35 -42 -10 -10 -18 -23 -18 -28 0 -6 -3 -9 -7
-8 -5 2 -8 0 -8 -4 0 -4 -18 -24 -40 -44 -22 -21 -33 -34 -25 -30 8 4 6 1 -4
-8 -10 -8 -24 -12 -30 -9 -6 4 -5 -1 3 -11 8 -9 10 -16 5 -14 -11 4 -60 -44
-56 -54 1 -5 -5 -8 -13 -8 -8 0 -14 -4 -13 -9 2 -5 -9 -19 -23 -33 -14 -13
-23 -30 -21 -38 5 -13 3 -13 -13 0 -12 9 -16 10 -11 2 5 -8 -5 -24 -27 -45
-20 -18 -37 -36 -39 -42 -2 -5 -7 -9 -12 -7 -5 2 -6 -5 -2 -14 5 -12 2 -15 -9
-10 -9 3 -13 2 -10 -4 3 -6 1 -10 -5 -10 -6 0 -9 -4 -6 -9 3 -5 -1 -12 -10
-15 -8 -3 -12 -10 -9 -16 4 -6 -1 -7 -11 -3 -12 4 -15 3 -10 -5 4 -7 3 -12 -3
-12 -5 0 -13 -9 -16 -21 -4 -12 -12 -18 -21 -15 -7 3 -13 2 -13 -2 1 -4 1 -16
0 -27 -1 -17 -3 -18 -11 -5 -8 13 -10 12 -10 -3 0 -10 -7 -20 -16 -24 -8 -3
-13 -12 -10 -19 3 -8 0 -13 -7 -11 -7 1 -10 -5 -9 -13 2 -8 1 -12 -3 -8 -6 6
-45 -26 -45 -37 0 -3 -10 -16 -21 -28 -12 -12 -18 -16 -14 -8 6 10 4 12 -4 7
-7 -5 -10 -11 -7 -14 9 -8 -15 -33 -25 -26 -5 3 -9 2 -8 -3 3 -19 -2 -34 -10
-29 -5 3 -11 -4 -14 -15 -4 -13 -10 -18 -18 -13 -7 4 -10 3 -5 -4 3 -6 -2 -15
-11 -21 -10 -6 -14 -11 -10 -11 5 0 1 -7 -7 -16 -9 -8 -20 -13 -25 -9 -6 3 -8
-4 -6 -16 3 -15 0 -19 -11 -15 -9 3 -12 1 -9 -4 3 -6 1 -10 -5 -10 -7 0 -10
-7 -6 -15 3 -8 2 -14 -2 -14 -20 3 -32 -2 -30 -13 2 -7 -3 -12 -10 -10 -6 1
-11 -1 -11 -5 3 -18 -1 -33 -8 -31 -5 2 -9 -1 -10 -5 -4 -14 -31 -37 -45 -37
-10 0 -9 -3 2 -10 12 -8 10 -10 -10 -10 -20 0 -22 -2 -10 -10 8 -5 12 -10 8
-11 -5 -1 -12 -3 -18 -4 -5 -1 -13 -3 -17 -4 -5 -1 -1 -6 7 -11 13 -9 13 -10
0 -10 -18 0 -51 -35 -43 -44 6 -6 -12 -10 -29 -7 -4 0 -5 -6 -2 -14 4 -8 1
-15 -6 -15 -6 0 -8 -5 -4 -12 4 -7 3 -8 -4 -4 -10 6 -38 -31 -34 -46 1 -4 -6
-4 -15 -1 -9 4 -14 2 -10 -3 3 -6 -3 -17 -14 -24 -10 -8 -19 -20 -19 -27 0 -7
-3 -12 -7 -11 -5 2 -9 0 -10 -5 -2 -4 -18 -23 -37 -42 -19 -18 -31 -36 -28
-39 3 -3 -2 -6 -11 -6 -10 0 -17 -8 -17 -19 0 -11 -5 -23 -12 -27 -7 -4 -8 -3
-4 4 4 7 2 12 -3 12 -6 0 -11 -7 -11 -16 0 -8 -5 -12 -10 -9 -6 4 -10 3 -9 -2
1 -4 1 -17 0 -28 -1 -17 -3 -18 -11 -5 -9 13 -10 13 -10 0 0 -8 -15 -29 -33
-46 -18 -16 -31 -36 -29 -43 3 -8 1 -12 -4 -9 -11 6 -45 -28 -36 -36 3 -3 -2
-6 -11 -6 -19 0 -40 -33 -29 -45 4 -5 -1 -5 -10 -2 -13 4 -16 1 -13 -14 2 -11
0 -17 -5 -14 -11 7 -51 -31 -42 -39 3 -3 0 -6 -7 -6 -7 0 -10 -4 -7 -9 3 -5
-2 -15 -11 -22 -11 -10 -14 -10 -9 -2 5 9 2 11 -9 7 -13 -5 -13 -9 -3 -22 10
-12 10 -14 0 -8 -7 4 -14 1 -18 -7 -2 -7 -12 -14 -20 -14 -9 0 -11 4 -5 10 5
5 6 21 1 38 -5 16 -5 29 0 29 4 0 4 15 0 34 -4 19 -4 40 1 47 4 7 3 19 -3 26
-6 8 -6 13 -1 13 5 0 10 7 10 15 0 8 -4 15 -9 15 -5 0 -4 9 2 20 8 14 8 20 0
20 -8 0 -8 6 0 20 8 14 8 20 0 20 -8 0 -8 6 0 20 6 11 7 20 2 20 -10 0 -8 48
2 57 3 4 1 12 -5 20 -7 8 -8 13 -1 13 6 0 7 13 2 34 -4 19 -4 40 1 47 4 7 3
19 -3 26 -7 9 -7 13 0 13 6 0 7 13 2 34 -4 19 -4 40 1 47 4 7 3 19 -3 26 -6 8
-6 13 -1 13 5 0 10 7 10 15 0 8 -4 15 -9 15 -5 0 -4 9 2 20 8 14 8 20 0 20 -8
0 -8 6 0 20 8 14 8 20 0 20 -8 0 -8 6 0 20 6 11 7 20 2 20 -10 0 -8 48 2 57 3
4 1 12 -5 20 -7 8 -8 13 -1 13 6 0 7 13 2 34 -4 19 -4 40 1 47 4 7 3 19 -3 26
-7 9 -7 13 0 13 6 0 7 13 2 34 -4 19 -4 40 1 47 4 7 3 19 -3 26 -7 9 -7 13 0
13 6 0 7 13 2 34 -4 19 -4 40 1 47 4 7 3 19 -3 26 -6 7 -6 13 -1 13 5 0 6 24
3 55 -3 30 -3 61 1 67 4 7 3 18 -3 25 -6 7 -6 13 -1 13 5 0 6 24 3 55 -3 30
-3 61 1 67 4 7 3 18 -3 25 -6 7 -6 13 -1 13 5 0 6 24 3 55 -3 30 -3 61 1 67 4
7 3 18 -3 25 -6 7 -6 13 -1 13 5 0 6 24 3 55 -3 30 -3 61 1 67 4 7 3 18 -3 25
-6 7 -6 13 -1 13 5 0 6 24 3 55 -3 30 -3 61 1 67 4 7 3 18 -3 25 -6 7 -6 13
-1 13 5 0 6 24 3 55 -3 30 -3 61 1 67 4 7 3 18 -3 25 -6 7 -6 13 -1 13 5 0 6
24 3 55 -3 30 -3 61 1 67 4 7 3 18 -3 25 -6 7 -7 13 -2 13 5 0 9 16 9 35 0 19
-4 35 -8 35 -4 0 -3 9 3 20 8 14 8 20 0 20 -8 0 -8 6 0 20 6 11 7 20 2 20 -4
0 -6 16 -4 34 3 29 1 35 -14 35 -11 0 -61 2 -112 3 -50 2 -92 0 -92 -4 0 -4
-6 -5 -14 -2 -23 9 -106 10 -106 1 0 -5 -4 -5 -10 -2 -5 3 -44 6 -87 5 -76 0
-95 0 -130 0 -10 0 -40 0 -66 0 -27 0 -53 2 -58 5 -5 4 -9 2 -9 -3 0 -5 -14
-6 -32 -3 -18 4 -48 4 -65 0 -18 -4 -33 -4 -33 0 0 3 -40 6 -90 6 -49 0 -90
-3 -90 -7z m2574 -2704 c3 -8 2 -12 -4 -9 -6 3 -10 10 -10 16 0 14 7 11 14 -7z
m-1358 -992 c-17 -16 -18 -16 -5 5 7 12 15 20 18 17 3 -2 -3 -12 -13 -22z"/>
<path d="M4379 11083 c-13 -16 -12 -17 4 -4 16 13 21 21 13 21 -2 0 -10 -8
-17 -17z"/>
<path d="M15694 11019 c-5 -8 -3 -9 7 -4 8 5 10 4 6 0 -11 -12 -37 -15 -37 -4
0 5 -5 9 -11 9 -5 0 -7 -5 -3 -11 4 -8 0 -8 -15 0 -16 9 -21 9 -21 -1 0 -9 -3
-9 -10 2 -8 12 -10 12 -10 1 0 -10 -3 -11 -13 -2 -10 8 -17 7 -25 -1 -7 -7
-12 -9 -12 -5 0 4 -9 3 -19 -3 -14 -7 -22 -7 -26 1 -5 6 -12 4 -22 -8 -8 -10
-12 -12 -8 -5 7 15 -11 16 -20 2 -5 -8 -11 -7 -21 1 -11 9 -14 8 -14 -7 0 -11
-4 -15 -8 -9 -9 13 -63 14 -55 1 3 -5 -6 -7 -21 -4 -18 4 -30 0 -36 -11 -5 -9
-10 -11 -10 -5 0 6 -7 11 -15 11 -8 0 -12 -4 -9 -8 2 -4 -4 -8 -13 -8 -32 -1
-58 -7 -80 -19 -13 -7 -23 -9 -23 -5 0 4 -5 1 -10 -7 -7 -11 -10 -11 -10 -2 0
7 -5 10 -10 7 -6 -4 -8 -10 -6 -13 2 -4 -9 -8 -26 -9 -17 0 -34 -6 -38 -13 -4
-7 -13 -9 -19 -6 -6 4 -11 2 -11 -5 0 -7 -8 -9 -21 -6 -12 3 -18 3 -15 0 3 -4
1 -12 -5 -20 -9 -10 -15 -10 -25 -2 -11 9 -15 7 -20 -5 -3 -9 -10 -13 -15 -10
-5 3 -9 0 -9 -6 0 -7 -7 -9 -16 -6 -10 4 -13 2 -8 -6 5 -8 2 -9 -10 -5 -9 4
-15 3 -12 -1 3 -5 -13 -16 -35 -26 -21 -10 -37 -22 -34 -27 4 -5 -1 -6 -9 -3
-9 3 -16 1 -16 -5 0 -6 -7 -11 -15 -11 -8 0 -15 -4 -15 -10 0 -5 -3 -9 -7 -9
-21 3 -26 -2 -13 -12 13 -9 12 -10 -3 -5 -11 3 -28 -3 -43 -17 -13 -12 -35
-32 -49 -44 -13 -13 -29 -23 -35 -23 -6 0 -8 -4 -5 -10 3 -5 0 -10 -8 -10 -8
0 -17 -7 -21 -15 -3 -8 -11 -14 -18 -13 -8 2 -12 -5 -10 -16 2 -11 -1 -15 -7
-11 -10 5 -15 -7 -12 -27 0 -5 -2 -7 -7 -7 -19 3 -33 -2 -27 -10 3 -5 -3 -12
-14 -16 -10 -3 -22 -17 -25 -31 -4 -14 -17 -29 -29 -34 -12 -5 -16 -9 -9 -9 7
-1 10 -6 7 -11 -4 -6 -12 -7 -18 -3 -7 4 -5 -2 3 -12 8 -10 11 -16 5 -13 -9 5
-44 -22 -37 -29 7 -8 1 -23 -8 -18 -9 5 -14 -17 -7 -30 1 -2 -7 -10 -17 -18
-11 -8 -16 -19 -12 -25 4 -7 3 -12 -3 -12 -6 0 -15 -10 -22 -21 -9 -17 -8 -20
3 -13 7 4 5 -2 -5 -13 -9 -11 -14 -23 -10 -26 3 -4 2 -7 -4 -7 -5 0 -10 -6
-11 -12 -3 -39 -8 -54 -20 -61 -10 -7 -10 -12 -1 -23 9 -11 8 -15 -4 -20 -9
-3 -13 -12 -11 -19 3 -7 0 -16 -6 -20 -8 -5 -8 -11 1 -21 9 -11 8 -15 -5 -20
-11 -4 -13 -11 -6 -24 5 -9 6 -20 3 -24 -4 -4 -8 -13 -10 -21 -2 -8 -4 -22 -6
-30 -2 -8 -6 -17 -10 -21 -3 -4 -2 -15 4 -25 7 -14 6 -19 -3 -19 -9 0 -9 -3 2
-10 10 -6 11 -10 3 -10 -7 0 -13 -5 -13 -11 0 -5 5 -7 11 -3 8 5 8 1 0 -14
-13 -24 -14 -35 -3 -29 4 3 7 -5 7 -18 0 -19 -3 -21 -14 -12 -12 10 -12 9 -2
-11 6 -12 11 -28 10 -35 -3 -26 2 -38 14 -32 6 4 4 0 -5 -7 -10 -9 -14 -19 -8
-28 4 -7 6 -19 3 -26 -2 -6 0 -15 6 -19 8 -4 8 -12 0 -27 -8 -15 -8 -19 0 -14
6 4 11 0 11 -9 0 -10 -5 -13 -12 -9 -9 5 -9 2 1 -9 7 -9 10 -17 6 -17 -5 0 -2
-8 7 -17 8 -10 13 -28 12 -41 -1 -12 3 -25 9 -29 6 -4 7 -1 2 7 -5 9 -4 11 4
6 9 -6 9 -11 0 -22 -9 -11 -8 -15 5 -20 9 -3 13 -10 10 -15 -3 -5 5 -23 17
-41 14 -18 17 -28 8 -24 -7 4 -4 -1 8 -12 12 -11 19 -22 16 -26 -4 -3 -1 -6 6
-6 7 0 10 -4 7 -9 -3 -5 1 -11 9 -15 8 -3 15 -10 15 -16 0 -15 37 -49 46 -42
4 4 4 2 1 -4 -4 -7 5 -19 18 -28 14 -9 23 -21 20 -26 -4 -6 1 -10 9 -10 9 0
16 -7 16 -16 0 -8 5 -12 10 -9 6 3 10 1 10 -6 0 -7 3 -9 6 -6 4 4 18 -6 30
-21 13 -15 24 -23 24 -19 0 4 6 2 14 -5 8 -7 11 -17 8 -23 -3 -5 3 -3 13 5 11
9 16 10 11 3 -4 -8 -1 -13 8 -13 9 0 16 -4 16 -10 0 -5 7 -6 17 -3 10 4 14 2
10 -4 -8 -12 17 -36 27 -26 3 4 13 -2 22 -13 8 -10 13 -13 9 -7 -4 9 -1 11 9
7 9 -3 16 -12 16 -20 0 -8 6 -11 15 -8 8 4 15 1 15 -6 0 -6 5 -8 11 -5 5 4 19
-1 29 -10 11 -10 31 -17 44 -17 14 0 23 -4 20 -9 -3 -5 6 -9 20 -9 14 0 26 -4
26 -9 0 -5 7 -11 14 -14 11 -4 13 -1 10 11 -4 12 -1 11 8 -3 7 -12 20 -20 28
-20 8 1 24 -6 34 -14 11 -9 16 -11 12 -4 -4 8 2 7 21 -2 15 -8 34 -15 41 -15
6 0 12 -4 12 -9 0 -5 8 -8 18 -7 9 2 20 -2 24 -8 5 -7 8 -7 8 3 0 9 5 7 18 -6
9 -10 13 -13 8 -6 -6 10 -4 12 8 7 9 -3 16 -10 16 -14 0 -5 9 -7 19 -5 11 2
22 -3 25 -10 3 -8 13 -11 27 -8 14 4 20 2 16 -4 -5 -7 0 -9 13 -6 11 3 20 1
20 -5 0 -11 18 -11 37 1 9 5 11 3 7 -6 -4 -11 2 -14 20 -12 14 2 26 -1 26 -6
0 -6 4 -8 9 -4 5 3 12 1 16 -5 4 -6 11 -8 16 -5 5 4 9 2 9 -3 0 -6 10 -8 22
-4 13 3 19 1 15 -5 -5 -7 1 -9 15 -5 14 3 19 1 14 -6 -4 -7 2 -9 20 -6 17 3
23 1 19 -7 -5 -8 -1 -9 14 -4 11 3 21 2 21 -2 0 -5 11 -10 25 -11 57 -5 65 -7
65 -15 0 -4 4 -6 9 -2 5 3 12 1 15 -4 4 -5 14 -8 24 -7 9 2 20 -1 23 -5 3 -5
17 -10 32 -11 15 -1 27 -6 27 -10 0 -4 9 -5 20 -3 12 2 18 0 14 -6 -3 -6 2
-10 12 -8 11 1 32 -3 48 -10 16 -6 31 -9 34 -7 2 3 11 -1 18 -9 8 -8 23 -12
34 -10 11 2 18 0 15 -4 -3 -5 2 -12 11 -15 8 -3 12 -2 9 4 -3 6 1 7 9 4 9 -3
16 -10 16 -14 0 -5 9 -7 21 -5 16 3 19 0 15 -12 -5 -13 -4 -14 8 -4 10 8 16 9
21 1 3 -6 11 -8 16 -4 5 3 17 0 25 -7 9 -7 23 -14 32 -15 8 -2 19 -9 23 -16 5
-7 9 -9 9 -4 0 5 8 2 17 -5 11 -10 14 -10 9 -1 -10 17 -2 15 24 -8 12 -11 27
-17 31 -14 5 3 9 0 9 -6 0 -6 4 -9 9 -5 5 3 12 1 16 -5 4 -6 12 -7 18 -4 7 4
9 4 5 0 -12 -14 15 -35 30 -23 7 6 12 6 11 1 -4 -21 2 -34 16 -34 8 0 15 -4
15 -8 0 -5 10 -19 23 -32 12 -14 21 -28 19 -32 -1 -5 2 -8 6 -8 5 0 14 -11 20
-25 9 -19 9 -25 -1 -25 -8 0 -9 -3 -1 -8 15 -10 34 -91 23 -98 -5 -3 -5 -12 0
-23 5 -9 6 -23 2 -30 -5 -7 -6 -21 -4 -31 3 -10 -1 -21 -8 -25 -8 -6 -10 -4
-4 5 5 9 4 11 -4 6 -9 -6 -9 -11 0 -22 8 -10 9 -18 0 -27 -6 -8 -8 -17 -4 -20
3 -4 1 -7 -6 -7 -7 0 -11 -6 -8 -14 3 -8 -1 -17 -9 -20 -8 -3 -14 -9 -13 -13
4 -23 -2 -32 -18 -26 -13 5 -15 3 -9 -12 4 -11 4 -16 0 -12 -4 4 -14 -2 -21
-13 -8 -11 -19 -17 -25 -14 -7 4 -8 2 -4 -4 4 -7 2 -12 -4 -12 -6 0 -8 -5 -5
-11 4 -6 0 -9 -11 -7 -11 2 -18 -2 -17 -9 2 -7 0 -12 -5 -12 -14 3 -72 -23
-67 -31 2 -4 -7 -6 -20 -4 -14 1 -25 -2 -25 -8 0 -5 -6 -8 -12 -5 -7 2 -18 -3
-24 -12 -10 -13 -14 -13 -30 -1 -11 9 -15 10 -10 3 5 -9 0 -13 -16 -15 -35 -2
-42 -3 -53 -9 -5 -3 -17 -5 -25 -4 -8 0 -21 -5 -28 -12 -13 -13 -45 -7 -37 7
3 5 1 12 -5 15 -6 4 -9 1 -8 -7 2 -9 -10 -13 -40 -13 -23 0 -42 -3 -42 -6 0
-4 -16 -3 -35 1 -20 4 -38 4 -41 -1 -3 -5 -10 -6 -17 -2 -15 9 -57 10 -63 1
-3 -4 -11 -5 -19 -2 -8 4 -12 11 -8 18 4 6 -1 5 -11 -3 -14 -12 -19 -12 -29
-1 -10 10 -9 11 2 5 10 -6 12 -4 7 4 -5 7 -12 9 -19 3 -15 -11 -57 -13 -57 -4
0 10 -42 8 -59 -2 -7 -4 -15 -5 -18 -2 -4 3 -1 6 5 6 7 0 12 3 12 8 0 7 -36
12 -88 12 -15 0 -21 4 -16 12 5 7 3 8 -6 3 -7 -4 -16 -2 -21 6 -7 11 -9 11 -9
1 0 -8 -5 -10 -12 -5 -13 8 -18 9 -39 12 -5 0 -7 7 -3 14 5 8 2 8 -9 -2 -11
-8 -17 -9 -17 -3 0 6 -7 9 -15 6 -9 -4 -15 0 -15 7 0 11 -2 11 -10 -1 -8 -12
-10 -12 -16 3 -4 10 -13 16 -20 13 -7 -3 -16 -1 -20 5 -3 6 -12 8 -20 5 -8 -3
-14 -1 -14 5 0 6 -7 9 -15 5 -8 -3 -15 -1 -15 5 0 6 -4 7 -10 4 -5 -3 -10 -1
-10 4 0 6 -6 10 -12 8 -7 -1 -12 4 -10 11 2 10 -2 10 -19 1 -15 -8 -19 -8 -15
0 4 7 -1 11 -14 11 -11 0 -23 6 -26 13 -3 8 -15 13 -27 12 -12 -1 -28 4 -35
12 -8 7 -19 10 -25 6 -6 -4 -8 0 -4 10 4 11 2 14 -9 10 -7 -3 -14 0 -14 6 0 6
-7 8 -15 5 -8 -4 -15 -1 -15 6 0 6 -4 8 -10 5 -5 -3 -10 -1 -10 4 0 6 -6 10
-12 9 -7 -2 -12 2 -11 7 1 6 -7 12 -18 12 -12 1 -17 -3 -13 -10 3 -7 -8 3 -25
21 -17 18 -31 30 -31 27 0 -3 -13 1 -30 10 -16 9 -30 20 -30 25 0 5 -7 7 -15
4 -10 -4 -15 0 -15 12 0 16 -2 17 -10 4 -9 -13 -14 -7 -11 12 0 4 -5 5 -13 2
-8 -3 -17 0 -22 7 -5 8 -3 10 6 4 8 -5 11 -4 6 3 -4 6 -13 9 -20 6 -8 -3 -21
5 -30 18 -9 12 -16 19 -16 14 0 -5 -6 -3 -13 3 -8 6 -18 7 -22 3 -5 -4 -5 -1
-1 6 6 11 -5 17 -26 13 -5 0 -8 5 -8 13 0 8 -5 18 -12 22 -7 5 -9 2 -4 -7 4
-8 -1 -4 -11 7 -16 18 -22 19 -36 9 -9 -6 -14 -15 -10 -18 3 -4 -2 -7 -12 -7
-14 0 -15 -3 -5 -15 10 -12 10 -15 -4 -15 -9 0 -15 -6 -14 -12 2 -7 -3 -12
-11 -10 -12 3 -12 1 0 -14 8 -10 9 -15 2 -11 -6 4 -14 3 -18 -3 -3 -5 0 -10 7
-11 7 0 5 -4 -5 -8 -10 -4 -19 -11 -19 -16 0 -19 -19 -45 -28 -40 -5 3 -7 -4
-5 -15 2 -11 0 -20 -6 -20 -5 0 -9 -7 -9 -15 0 -8 -4 -15 -10 -15 -5 0 -10 -7
-10 -15 0 -9 -7 -18 -15 -21 -8 -4 -12 -10 -9 -15 3 -5 0 -9 -7 -9 -7 0 -9 -3
-6 -7 4 -3 -1 -12 -11 -20 -9 -8 -11 -12 -5 -8 9 4 11 1 7 -9 -3 -9 -10 -13
-15 -10 -5 3 -9 -4 -9 -15 0 -13 -7 -21 -17 -22 -13 0 -14 -2 -4 -6 11 -4 8
-10 -10 -25 -13 -11 -17 -17 -9 -13 13 6 13 5 0 -7 -8 -7 -16 -20 -18 -28 -2
-8 -10 -22 -18 -31 -8 -9 -11 -19 -7 -24 5 -4 0 -5 -9 -2 -10 4 -18 2 -18 -3
0 -6 5 -10 12 -10 6 0 3 -8 -8 -19 -10 -10 -23 -16 -29 -13 -5 3 -4 -1 3 -10
10 -12 10 -17 -1 -27 -8 -6 -17 -9 -20 -6 -4 3 13 -16 37 -41 24 -25 51 -47
60 -48 21 -3 57 -42 48 -52 -4 -5 0 -3 10 4 14 11 17 10 23 -8 5 -15 12 -19
23 -15 9 3 13 3 10 -1 -11 -10 21 -37 36 -31 14 6 50 -25 41 -35 -3 -2 2 -5
10 -6 8 -1 21 -3 29 -4 8 -1 14 -6 13 -12 -1 -6 4 -10 11 -8 7 1 15 -5 19 -14
4 -11 8 -12 13 -4 5 7 11 6 21 -6 12 -16 12 -17 -1 -9 -9 5 -12 5 -7 -1 9 -9
13 -10 43 -13 8 0 12 -6 9 -11 -4 -6 -3 -10 2 -9 22 4 44 -2 38 -10 -3 -6 4
-8 15 -6 11 2 20 -1 20 -6 0 -6 5 -7 10 -4 6 3 10 1 10 -5 0 -6 5 -8 10 -5 6
3 10 1 10 -5 0 -6 5 -8 10 -5 6 3 10 1 10 -4 0 -6 7 -11 15 -11 8 0 15 -6 15
-12 0 -9 4 -8 10 2 7 11 10 11 10 2 0 -8 5 -10 12 -6 8 5 9 2 4 -11 -6 -15 -4
-16 10 -5 9 8 18 10 22 4 10 -13 55 -38 48 -26 -3 6 5 5 19 -1 14 -7 25 -15
25 -18 0 -3 11 -5 25 -4 14 2 25 0 25 -5 0 -4 7 -11 16 -14 8 -3 12 -2 9 4 -3
6 1 7 9 4 9 -3 13 -11 10 -16 -4 -6 2 -8 15 -3 11 3 21 2 21 -3 0 -6 7 -13 16
-16 8 -3 12 -2 9 4 -10 16 7 12 28 -7 15 -13 18 -14 12 -3 -7 12 -6 13 6 3 12
-10 18 -10 29 0 7 6 10 7 7 1 -4 -6 5 -16 19 -23 14 -6 23 -7 20 -2 -6 9 50
-8 73 -23 11 -7 12 -6 6 5 -7 11 -6 12 6 4 8 -6 28 -12 44 -14 17 -2 31 -7 33
-11 2 -5 9 -7 17 -4 7 3 23 0 35 -6 13 -7 20 -7 16 -2 -3 6 1 9 10 8 8 -1 19
-8 24 -15 6 -10 9 -10 15 -1 6 9 10 9 16 -1 7 -11 9 -11 9 -1 0 9 5 10 19 3
10 -6 21 -7 25 -4 3 3 6 1 6 -5 0 -7 4 -12 10 -12 5 0 7 8 3 18 -4 11 1 9 16
-8 12 -14 20 -20 17 -13 -4 7 1 11 14 10 11 -1 20 -4 20 -8 0 -4 14 -4 30 1
17 5 28 5 25 0 -3 -4 26 -7 64 -6 38 1 67 -2 64 -6 -2 -5 -9 -5 -15 -2 -7 4
-8 2 -4 -4 9 -15 12 -15 30 4 10 10 16 11 16 3 0 -9 3 -9 14 0 11 9 16 9 22 0
5 -8 3 -9 -6 -4 -9 5 -11 4 -6 -4 4 -6 13 -8 19 -4 20 12 37 12 37 0 0 -9 2
-9 8 -1 9 14 42 14 42 0 0 -5 7 -1 16 10 8 10 13 14 10 8 -7 -15 21 -27 30
-13 4 6 12 5 22 -3 12 -10 14 -10 8 0 -5 8 -1 11 16 8 13 -2 29 2 37 8 11 8
13 8 8 0 -11 -18 21 -25 37 -8 10 10 17 11 22 3 5 -8 9 -7 14 2 7 10 12 10 26
-2 14 -11 16 -11 10 0 -6 9 -5 12 5 9 8 -3 24 -1 37 3 14 6 22 5 22 -2 0 -7 6
-6 17 2 20 17 16 17 37 0 14 -12 16 -12 10 4 -5 13 -4 16 5 11 6 -4 19 -2 28
6 9 7 14 8 10 2 -4 -8 5 -11 27 -10 23 1 31 5 26 12 -6 7 1 9 23 8 18 -1 38 3
46 9 12 10 13 9 7 -1 -7 -11 -4 -12 13 -3 12 7 27 9 33 5 7 -5 8 -3 3 6 -6 10
-4 12 8 7 10 -4 17 -1 17 6 0 8 4 7 10 -3 8 -12 10 -12 16 3 3 9 10 17 16 17
5 0 6 -4 3 -10 -3 -6 1 -7 9 -4 9 3 16 10 16 14 0 5 9 7 20 5 11 -2 20 1 20 6
0 6 4 8 9 4 5 -3 12 -1 16 5 4 6 11 8 16 5 5 -4 9 -1 9 4 0 6 5 11 11 11 5 0
7 -5 4 -11 -4 -6 2 -5 13 2 12 7 18 18 14 24 -3 5 1 4 10 -3 13 -10 18 -10 24
-1 5 8 3 9 -6 4 -8 -5 -11 -4 -6 3 4 6 13 9 21 5 8 -3 15 0 15 7 0 6 4 9 9 5
5 -3 13 0 16 6 4 5 13 8 21 5 8 -3 13 -2 13 2 -3 19 2 25 11 12 8 -13 10 -12
10 2 0 10 3 17 8 17 21 -4 32 2 26 14 -5 7 0 6 11 -3 10 -8 16 -10 12 -4 -4 7
5 19 19 29 18 11 24 13 19 4 -4 -8 2 -4 14 9 12 12 26 20 32 17 5 -4 12 1 15
9 3 9 11 13 17 9 6 -3 7 -1 3 5 -8 13 27 35 40 24 5 -4 2 1 -5 11 -12 15 -12
17 1 12 8 -3 21 1 28 9 7 9 17 13 23 9 5 -3 7 -1 4 4 -4 6 0 14 9 17 8 3 12
11 8 18 -5 7 -1 9 13 6 15 -4 20 -1 19 11 0 9 5 15 12 14 6 -2 12 2 12 8 0 5
6 7 13 3 7 -5 7 -2 -2 10 -12 15 -12 17 0 14 8 -2 13 3 11 11 -2 9 3 11 14 7
13 -5 15 -2 11 13 -3 15 0 19 14 16 12 -3 16 1 12 11 -3 7 2 17 11 20 9 3 13
10 10 15 -3 5 2 9 10 9 9 0 17 7 17 15 3 32 4 36 18 44 8 5 10 14 5 22 -6 10
-3 10 11 -1 17 -14 18 -13 12 3 -4 11 -1 25 9 34 8 9 13 22 10 30 -3 8 -1 11
4 8 6 -4 13 8 17 25 3 18 12 34 20 37 10 4 11 9 2 19 -9 10 -8 15 3 19 7 3 15
15 15 27 1 12 7 24 14 28 8 6 8 9 -2 13 -10 4 -10 6 -1 6 7 1 12 14 12 32 0
16 4 28 8 25 10 -6 9 24 -1 41 -4 6 -2 15 4 19 8 5 9 3 4 -6 -5 -9 -4 -11 3
-6 9 5 9 13 1 28 -7 13 -7 18 -1 14 6 -3 13 -2 17 4 3 5 1 10 -5 10 -7 0 -8 6
-2 16 5 9 7 26 4 37 -4 15 -2 18 9 12 11 -7 12 -6 3 6 -7 8 -8 22 -3 34 10 27
11 47 1 41 -5 -3 -9 1 -9 9 0 8 4 15 9 15 5 0 6 4 3 10 -11 18 -14 51 -4 45
13 -9 11 9 -3 24 -7 8 -8 11 -3 8 6 -3 10 9 10 29 0 22 -5 34 -14 34 -9 0 -10
4 -4 13 13 17 8 58 -8 68 -8 5 -9 9 -3 9 15 0 12 43 -4 53 -7 5 -10 13 -6 18
3 5 0 17 -8 26 -9 12 -9 15 -1 9 9 -5 11 -2 7 8 -3 9 -11 16 -18 16 -6 0 -4 5
4 10 12 7 12 10 1 10 -7 0 -11 6 -8 14 4 11 1 13 -10 9 -13 -5 -14 -3 -3 17 8
15 8 20 1 16 -6 -4 -11 0 -11 8 0 9 -5 16 -11 16 -5 0 -8 4 -5 9 3 4 -6 21
-19 37 -14 16 -25 40 -26 54 0 14 -3 19 -6 13 -3 -10 -8 -10 -19 1 -8 8 -14
20 -14 26 0 7 -13 25 -30 40 -16 15 -30 32 -30 38 0 5 -9 12 -21 15 -12 3 -18
10 -15 15 3 6 -5 13 -19 16 -14 4 -25 11 -25 17 0 6 -6 7 -12 3 -8 -5 -7 0 2
11 11 14 11 17 1 11 -7 -5 -16 -4 -20 2 -3 6 -13 12 -21 14 -8 2 -21 11 -28
21 -7 9 -20 17 -28 17 -8 0 -14 5 -14 10 0 6 -7 10 -15 10 -8 0 -15 5 -15 11
0 6 -7 9 -15 5 -9 -3 -15 1 -15 11 0 13 -2 14 -17 2 -11 -10 -14 -10 -9 -1 4
7 2 12 -4 12 -6 0 -8 4 -5 10 3 5 0 7 -8 4 -8 -3 -21 2 -30 10 -8 8 -17 12
-21 9 -3 -4 -6 -1 -6 6 0 7 -4 9 -10 6 -5 -3 -10 -3 -10 2 0 4 -11 13 -25 20
-14 6 -22 7 -19 2 3 -5 -6 -4 -20 2 -14 7 -23 16 -20 20 2 4 -5 6 -16 4 -11
-2 -20 1 -20 6 0 6 -4 7 -10 4 -5 -3 -10 -1 -10 4 0 6 -3 10 -7 10 -20 -3 -34
2 -28 11 4 7 -2 7 -19 0 -19 -7 -25 -6 -23 3 1 7 -6 11 -15 11 -10 -1 -18 2
-18 7 0 5 -3 8 -7 8 -21 -3 -33 2 -27 12 4 8 0 8 -15 0 -14 -8 -21 -8 -21 -1
0 5 -7 10 -16 10 -9 0 -12 5 -8 13 5 8 2 8 -9 -2 -11 -8 -17 -9 -17 -3 0 6
-10 16 -21 23 -15 8 -19 8 -15 0 5 -7 -1 -10 -16 -7 -16 2 -22 9 -20 22 2 11
-1 15 -5 9 -9 -12 -33 -13 -50 -2 -7 5 -18 5 -23 2 -6 -4 -10 -3 -9 2 3 20 -2
27 -11 13 -9 -13 -11 -13 -20 0 -5 8 -10 11 -10 6 0 -5 -6 -3 -13 3 -8 6 -17
8 -20 4 -4 -3 -7 0 -7 8 0 11 -2 11 -10 -1 -7 -12 -10 -12 -10 -1 0 7 -6 11
-15 7 -8 -3 -15 -1 -15 5 0 6 -4 7 -10 4 -5 -3 -10 -2 -10 2 0 5 -11 10 -25
11 -56 5 -65 7 -65 14 0 4 -6 5 -14 2 -8 -3 -17 0 -22 7 -4 7 -3 10 4 5 6 -3
13 -2 16 3 7 10 -20 9 -30 -2 -4 -4 -18 0 -32 9 -14 9 -21 11 -17 4 5 -8 3
-11 -6 -8 -8 3 -13 11 -11 18 3 11 0 11 -12 0 -15 -12 -21 -7 -16 15 1 6 -4 5
-11 -2 -10 -10 -15 -9 -26 5 -14 16 -14 16 -9 -2 6 -18 5 -18 -19 -2 -14 9
-25 14 -25 10 0 -4 -6 -2 -13 4 -7 6 -25 9 -40 8 -19 -2 -27 1 -27 13 0 14 -2
14 -10 1 -6 -9 -10 -10 -10 -3 0 6 -9 10 -20 8 -11 -2 -20 0 -20 5 0 5 -9 7
-20 5 -11 -2 -22 1 -25 6 -4 5 -11 7 -16 4 -5 -4 -9 -1 -9 5 0 7 -6 10 -12 7
-7 -2 -21 0 -31 5 -19 10 -53 19 -74 20 -7 1 -13 7 -13 13 0 7 -11 11 -25 10
-15 -2 -29 3 -34 13 -5 8 -16 17 -25 18 -10 1 -13 -2 -9 -9 3 -7 -3 -4 -15 6
-11 11 -26 16 -31 12 -6 -3 -11 -1 -11 4 0 6 -5 11 -11 11 -7 0 -18 8 -25 18
-13 16 -14 16 -8 -3 l5 -20 -13 20 c-7 11 -20 21 -28 23 -8 2 -19 10 -23 18
-5 8 -12 12 -18 9 -8 -6 -13 8 -10 27 0 5 -2 7 -7 7 -19 -3 -33 2 -27 11 3 6
-1 10 -9 10 -9 0 -16 1 -16 3 0 1 -8 25 -19 54 -13 36 -16 54 -8 62 7 7 5 12
-7 17 -12 5 -14 10 -6 19 8 9 8 15 0 20 -6 3 -8 11 -5 16 4 5 1 9 -5 9 -6 0
-2 10 10 22 11 12 20 26 20 32 0 5 -6 1 -14 -10 -14 -18 -15 -18 -13 4 1 12 4
22 7 22 4 0 6 10 5 23 -1 12 4 29 12 39 11 12 11 18 2 24 -8 5 -10 3 -4 -6 6
-9 4 -11 -4 -5 -9 5 -7 12 8 27 12 10 19 23 16 29 -4 5 -1 9 6 9 6 0 9 8 6 19
-3 14 -1 18 10 14 8 -3 13 0 11 8 -2 8 3 13 9 12 7 -2 12 2 10 9 -1 7 8 17 21
23 12 5 25 18 28 28 3 9 10 15 15 12 5 -4 9 -2 9 2 0 5 9 14 21 21 17 11 20
11 14 0 -4 -7 3 -2 15 12 12 14 19 19 15 13 -3 -7 -2 -13 3 -13 6 0 12 7 16
15 3 8 12 12 21 9 8 -3 15 -1 15 6 0 6 4 9 9 5 5 -3 12 -1 16 5 4 6 11 8 16 5
5 -4 9 -1 9 4 0 6 4 11 10 11 5 0 7 -8 3 -17 -3 -12 0 -10 12 5 13 17 20 20
30 12 10 -8 16 -7 24 7 8 14 10 15 11 3 0 -13 1 -13 10 0 9 13 10 13 10 0 0
-9 3 -11 8 -4 4 6 15 14 26 17 14 6 17 4 12 -9 -5 -14 -4 -15 8 -5 19 16 54
22 62 10 4 -7 10 -7 18 0 7 6 18 6 25 1 9 -5 22 -3 33 3 15 10 21 9 28 -3 6
-9 10 -10 10 -3 0 12 30 10 52 -3 7 -5 8 -3 3 5 -6 10 -3 11 14 2 15 -8 21 -9
21 -1 0 6 5 8 10 5 6 -4 7 -12 3 -18 -4 -7 0 -6 10 2 11 9 17 10 17 2 0 -6 5
-11 11 -11 5 0 7 6 3 13 -6 9 -4 9 7 1 21 -16 55 -23 70 -13 7 4 16 4 19 -1 3
-6 23 -11 43 -12 20 -2 37 -7 37 -12 0 -5 7 -3 16 4 12 11 15 11 12 -1 -2 -8
3 -13 10 -12 6 2 12 -2 12 -8 0 -8 5 -8 15 1 8 7 15 9 15 4 0 -5 11 -14 25
-21 15 -6 22 -7 19 -1 -4 6 5 2 19 -7 15 -9 31 -14 37 -10 5 3 10 1 10 -4 0
-6 3 -10 8 -10 19 3 33 -2 27 -11 -3 -6 1 -7 9 -4 9 3 16 1 16 -5 0 -6 7 -8
15 -5 8 4 15 2 15 -3 0 -5 7 -10 15 -11 8 -1 22 -3 30 -4 8 -1 12 -5 9 -10 -5
-7 10 -12 29 -9 4 0 7 -4 7 -10 0 -5 5 -7 10 -4 6 3 10 -2 10 -12 0 -11 3 -14
8 -6 5 8 19 4 50 -14 23 -14 42 -29 42 -34 0 -4 7 -6 15 -3 8 4 15 1 15 -5 0
-6 7 -11 15 -11 8 0 15 -7 15 -15 0 -8 5 -15 11 -15 5 0 7 5 4 10 -9 15 0 12
23 -9 12 -10 18 -21 14 -25 -4 -4 -2 -7 3 -6 20 4 36 0 31 -8 -3 -5 1 -9 9
-10 8 -1 21 -3 29 -4 8 -1 14 -4 13 -7 -1 -4 9 -18 22 -31 13 -14 21 -19 17
-12 -12 21 4 13 34 -18 19 -20 30 -25 30 -16 0 8 7 21 15 30 9 8 17 19 18 23
1 4 5 7 10 5 4 -1 8 5 8 13 3 31 4 33 50 84 8 9 13 24 11 32 -3 8 -1 11 3 7 8
-8 45 33 45 50 0 5 11 21 25 36 27 29 32 42 13 30 -9 -5 -9 -3 1 9 7 9 18 14
24 10 5 -3 7 -1 3 5 -3 6 -1 14 5 17 5 4 8 13 5 21 -3 8 0 11 8 8 8 -3 17 0
22 7 5 8 3 10 -7 5 -8 -4 -6 -1 3 7 10 8 15 17 11 20 -3 4 -1 7 5 7 7 0 11 6
9 13 -1 6 4 11 11 9 8 -1 11 2 8 7 -4 5 1 14 10 19 11 6 15 16 11 26 -4 9 -3
15 2 12 5 -3 15 2 22 11 10 11 10 14 2 9 -9 -5 -11 -2 -7 8 3 9 11 14 17 13 7
-1 12 8 11 19 -1 14 5 21 15 20 21 -1 16 29 -10 55 -10 10 -19 16 -19 12 0 -4
-9 3 -20 15 -12 12 -25 22 -30 22 -6 0 -10 8 -10 18 0 14 -2 15 -10 2 -8 -13
-10 -12 -10 3 0 10 -4 15 -10 12 -5 -3 -10 -1 -10 4 0 6 -5 11 -11 11 -16 0
-39 26 -31 35 4 5 1 5 -6 1 -7 -4 -25 3 -43 18 -17 15 -35 24 -40 20 -5 -3 -9
3 -9 13 0 15 -2 16 -10 3 -8 -13 -10 -12 -10 3 0 10 -4 16 -8 13 -5 -3 -15 4
-22 15 -8 10 -22 19 -31 19 -10 0 -20 6 -22 13 -4 9 -6 9 -6 -2 -1 -8 -9 -5
-22 10 -11 13 -17 17 -13 9 7 -13 5 -13 -9 -1 -9 7 -15 16 -13 20 2 3 -7 7
-21 8 -14 0 -28 5 -32 10 -3 4 -12 9 -18 11 -7 1 -19 3 -25 5 -7 1 -16 6 -19
10 -3 5 -15 10 -25 11 -10 2 -18 9 -16 16 1 6 -2 9 -8 5 -5 -3 -19 -1 -31 6
-15 7 -19 8 -15 0 5 -7 1 -9 -8 -5 -9 3 -13 11 -9 18 3 6 3 8 -2 4 -4 -4 -15
-2 -23 5 -13 10 -14 9 -7 -3 6 -12 5 -13 -6 -2 -7 6 -21 12 -31 12 -10 0 -18
6 -18 13 0 8 -4 7 -10 -3 -6 -10 -10 -11 -10 -2 0 6 -12 12 -26 12 -14 0 -22
4 -19 10 3 6 -1 7 -10 4 -8 -4 -23 0 -32 7 -14 12 -16 12 -8 -1 8 -13 6 -13
-8 -2 -9 8 -21 11 -27 7 -5 -3 -10 -2 -10 2 0 5 -10 9 -22 10 -11 1 -25 8 -29
15 -5 7 -9 8 -9 3 0 -14 -39 -12 -67 3 -28 15 -36 15 -27 0 6 -10 5 -10 -8 -1
-8 7 -18 10 -21 6 -4 -3 -7 -2 -7 3 0 5 -25 9 -56 9 -32 0 -60 5 -66 12 -7 9
-16 10 -28 3 -9 -5 -20 -7 -23 -3 -10 10 -78 12 -72 2 4 -5 -1 -6 -9 -3 -9 3
-14 10 -11 14 3 5 -5 6 -17 2 -16 -4 -19 -2 -14 9 4 8 1 6 -7 -3 -10 -12 -17
-14 -24 -7 -8 8 -17 7 -33 -1 -12 -7 -20 -8 -16 -2 3 5 -1 12 -9 16 -8 3 -17
0 -21 -6 -5 -7 -2 -8 6 -3 8 5 11 4 7 -2 -4 -6 -18 -8 -32 -6 -15 3 -22 10
-18 17 5 7 2 7 -8 -1 -15 -12 -36 -12 -56 0 -6 4 -15 2 -19 -4z m-1573 -3606
c13 -16 12 -17 -3 -4 -10 7 -18 15 -18 17 0 8 8 3 21 -13z m1929 -557 c0 -3
-4 -8 -10 -11 -5 -3 -10 -1 -10 4 0 6 5 11 10 11 6 0 10 -2 10 -4z"/>
<path d="M7110 11012 c0 -7 -4 -10 -10 -7 -5 3 -10 0 -10 -7 0 -9 -2 -10 -8
-2 -7 11 -58 11 -69 0 -3 -3 -14 -1 -24 5 -13 6 -19 6 -19 0 0 -7 -9 -7 -26
-1 -17 7 -23 7 -19 0 7 -12 -23 -9 -44 4 -10 6 -12 5 -7 -2 4 -7 0 -12 -11
-13 -10 -1 -38 -3 -63 -5 -25 -3 -57 -5 -72 -6 -16 -1 -28 -4 -28 -7 0 -4 -17
-6 -37 -6 -21 1 -47 -6 -57 -15 -11 -8 -16 -9 -12 -2 4 6 2 12 -3 12 -6 0 -11
-5 -11 -11 0 -7 -9 -9 -24 -5 -15 4 -28 0 -36 -9 -10 -12 -16 -13 -26 -4 -11
9 -14 8 -14 0 0 -7 -4 -9 -10 -6 -5 3 -10 0 -10 -7 0 -10 -2 -10 -9 1 -5 8
-10 9 -12 3 -4 -9 -37 -19 -77 -21 -8 -1 -10 -6 -6 -13 6 -10 4 -10 -8 0 -14
11 -18 10 -27 -5 -8 -14 -10 -15 -11 -3 0 12 -2 12 -9 2 -4 -8 -11 -13 -15
-13 -19 3 -27 0 -22 -8 3 -4 -6 -6 -19 -3 -14 2 -25 0 -25 -6 0 -6 -9 -9 -20
-7 -11 2 -20 -1 -20 -6 0 -6 -4 -8 -9 -4 -6 3 -14 -3 -20 -12 -6 -10 -11 -13
-11 -6 0 7 -7 10 -15 7 -8 -4 -12 -11 -8 -18 4 -6 -2 -4 -12 4 -13 10 -16 11
-11 2 6 -9 3 -12 -10 -10 -11 2 -18 -2 -17 -9 2 -7 -3 -10 -11 -7 -8 3 -17 0
-21 -6 -6 -9 -10 -9 -16 1 -7 11 -9 10 -9 -5 0 -12 -5 -16 -14 -13 -8 3 -16 1
-18 -5 -2 -6 -18 -12 -36 -13 -17 -1 -35 -5 -39 -10 -5 -4 -3 -5 4 -1 6 3 14
2 18 -4 4 -6 -5 -10 -20 -10 -15 0 -24 -4 -20 -10 4 -7 -3 -9 -19 -6 -17 3
-33 -3 -50 -19 -14 -13 -26 -22 -26 -19 0 3 -9 0 -20 -6 -12 -7 -18 -16 -13
-23 4 -7 0 -7 -10 2 -12 9 -17 10 -17 2 0 -7 -3 -10 -7 -8 -10 6 -34 -19 -26
-26 2 -3 -3 -4 -13 -3 -22 3 -44 -15 -36 -29 3 -5 2 -7 -3 -3 -4 4 -15 2 -23
-5 -13 -10 -15 -9 -8 3 4 8 0 6 -8 -4 -9 -11 -16 -16 -16 -11 0 5 -6 1 -13
-10 -9 -11 -19 -15 -27 -10 -10 6 -12 4 -7 -8 4 -11 2 -14 -9 -10 -7 3 -14 0
-14 -7 0 -6 -4 -9 -8 -6 -5 3 -8 -8 -8 -24 0 -16 6 -32 13 -34 7 -3 13 -17 13
-31 0 -18 4 -24 12 -19 8 5 9 2 5 -9 -4 -12 -1 -17 10 -17 12 0 13 -3 4 -14
-10 -12 -8 -17 8 -25 12 -7 18 -17 15 -26 -4 -8 -1 -15 6 -15 6 0 9 -4 6 -9
-4 -5 -2 -11 4 -13 6 -2 12 -14 15 -27 2 -14 10 -29 16 -35 9 -8 10 -7 4 3 -6
10 -4 12 4 7 9 -6 9 -11 0 -22 -9 -11 -6 -16 12 -23 13 -5 18 -10 10 -10 -11
-1 -9 -6 5 -23 10 -12 13 -18 6 -14 -11 7 -11 4 0 -13 7 -12 17 -21 21 -21 5
0 7 -7 3 -15 -3 -8 -1 -15 4 -15 6 0 10 -7 10 -15 0 -8 5 -15 11 -15 5 0 7 -4
4 -10 -3 -5 -1 -10 4 -10 6 0 11 -5 11 -11 0 -5 -6 -7 -12 -3 -7 4 1 -8 17
-26 17 -18 23 -29 15 -25 -12 7 -12 5 1 -11 9 -10 14 -25 11 -33 -3 -8 0 -11
7 -7 7 4 11 -1 11 -13 0 -27 17 -36 37 -19 12 9 15 9 9 1 -5 -9 -2 -11 8 -7 9
3 13 10 10 15 -3 5 2 9 11 9 9 0 13 5 10 10 -4 6 -3 10 2 9 20 -3 34 2 28 11
-3 5 0 7 8 5 7 -3 25 5 40 19 14 13 42 30 61 37 19 7 33 16 30 21 -5 7 10 12
29 9 4 0 7 7 7 17 0 14 2 15 10 2 8 -12 10 -12 16 3 5 14 9 15 23 5 9 -7 13
-9 9 -4 -13 16 49 55 75 48 5 -1 6 1 4 5 -3 5 6 13 19 20 18 8 22 8 17 0 -4
-7 6 -1 22 11 22 17 30 20 37 10 5 -9 8 -8 8 5 0 10 4 16 9 12 5 -3 12 -1 16
5 4 6 11 8 16 5 5 -4 9 1 9 11 0 13 3 14 14 5 11 -10 17 -8 25 6 6 10 11 14
11 9 0 -5 7 -3 15 4 12 10 15 10 15 -1 0 -9 3 -10 8 -4 4 6 18 16 31 23 19 11
22 11 16 0 -4 -8 -1 -7 7 2 7 8 22 16 33 18 48 7 73 14 106 32 8 4 23 3 34 -2
14 -8 16 -8 10 2 -6 10 -4 12 8 7 10 -3 17 -3 17 1 0 12 40 9 40 -3 0 -5 5 -3
10 6 6 10 20 15 35 14 14 -2 27 1 30 5 3 5 12 7 20 3 9 -3 22 0 29 6 11 9 16
9 22 0 5 -8 3 -9 -6 -4 -9 5 -11 4 -6 -4 6 -9 11 -9 22 0 17 14 93 19 101 6 3
-5 9 -4 13 3 6 9 12 9 30 0 15 -8 20 -8 16 -1 -8 13 21 10 43 -3 10 -6 12 -5
7 2 -5 8 -2 10 8 6 9 -3 13 -11 9 -17 -3 -6 -1 -7 6 -3 6 4 8 12 5 18 -5 8 -1
9 12 3 10 -4 27 -7 37 -7 9 0 17 -4 17 -9 0 -6 5 -7 10 -4 6 4 7 12 3 18 -5 8
-2 8 9 0 8 -7 18 -10 21 -6 4 3 7 1 7 -5 0 -6 9 -9 20 -7 11 2 24 -4 30 -13 9
-14 10 -12 5 8 -4 14 -3 20 2 14 11 -15 57 -39 49 -25 -4 6 9 4 29 -4 19 -9
35 -12 35 -9 0 4 9 -1 20 -11 11 -10 23 -15 27 -12 3 4 12 2 20 -4 7 -6 13 -8
13 -3 0 4 7 -1 16 -12 8 -10 12 -12 8 -4 -4 8 4 5 17 -7 18 -16 28 -19 41 -12
14 8 16 6 13 -11 -3 -18 -1 -19 17 -9 11 6 18 7 14 1 -8 -14 30 -45 45 -36 8
4 10 3 5 -4 -4 -7 -2 -12 4 -12 6 0 8 -5 5 -10 -4 -6 -3 -10 2 -9 18 3 47 -3
36 -8 -10 -3 -10 -7 0 -18 7 -7 15 -11 20 -8 4 2 7 -1 7 -7 0 -7 14 -25 31
-41 17 -16 26 -29 19 -29 -6 0 1 -10 15 -22 14 -13 27 -33 28 -45 1 -13 7 -23
15 -23 7 0 10 -4 7 -10 -3 -5 -2 -10 4 -10 6 0 8 -7 5 -15 -3 -8 1 -22 10 -30
9 -9 16 -22 16 -28 0 -7 -4 -6 -10 3 -5 8 -10 10 -10 4 0 -6 7 -17 15 -24 8
-7 13 -16 10 -20 -3 -5 -1 -12 5 -15 6 -4 10 -14 8 -23 -1 -10 3 -27 10 -39
11 -20 10 -22 -4 -16 -15 5 -15 4 1 -20 9 -15 14 -27 10 -27 -4 0 -1 -8 6 -17
12 -15 12 -16 -5 -10 -16 6 -17 5 -6 -8 7 -8 10 -21 7 -29 -3 -8 -3 -17 0 -20
10 -10 8 -86 -2 -89 -6 -2 -5 -9 2 -19 10 -11 10 -17 1 -26 -8 -8 -9 -12 -1
-12 12 0 12 -18 0 -37 -4 -7 0 -16 9 -21 15 -8 15 -10 0 -15 -13 -5 -15 -11
-7 -25 7 -13 6 -23 -2 -32 -9 -10 -9 -11 0 -6 9 5 11 2 7 -9 -6 -14 -8 -14
-25 1 -10 9 -27 14 -39 11 -11 -3 -18 -1 -14 4 3 5 -2 9 -11 9 -9 0 -13 4 -10
10 4 7 -3 7 -20 0 -20 -8 -27 -7 -31 5 -4 8 -10 12 -15 9 -5 -3 -9 -1 -9 4 0
6 -10 8 -22 4 -14 -3 -19 -1 -14 6 3 6 1 14 -5 18 -8 4 -9 3 -5 -4 4 -7 1 -12
-8 -12 -9 0 -16 4 -16 9 0 5 -9 7 -20 4 -11 -3 -27 0 -35 7 -8 6 -19 9 -25 5
-5 -3 -10 -1 -10 5 0 6 -5 8 -10 5 -6 -4 -18 -1 -27 7 -12 9 -15 9 -9 1 8 -14
-19 -7 -41 10 -9 6 -13 5 -13 -4 0 -8 -6 -6 -16 7 -8 10 -13 14 -10 7 4 -7 -1
-11 -14 -10 -11 1 -20 6 -20 12 0 5 -4 4 -9 -3 -7 -11 -9 -11 -14 2 -5 12 -13
13 -37 6 -21 -6 -28 -5 -24 2 5 7 0 9 -14 6 -13 -4 -22 -1 -22 5 0 7 -5 5 -10
-3 -8 -12 -10 -12 -11 5 l0 20 -9 -20 c-5 -11 -9 -15 -9 -8 -1 6 -10 10 -21 8
-11 -2 -20 1 -20 7 0 7 -6 6 -15 -2 -8 -7 -15 -8 -15 -3 0 5 -9 9 -19 9 -11 0
-17 -4 -15 -8 6 -10 -10 -11 -19 -1 -4 3 -1 13 5 22 10 12 8 12 -8 -1 -22 -19
-39 -24 -30 -9 4 5 -1 8 -10 7 -8 -1 -20 -9 -25 -17 -7 -12 -9 -12 -9 0 0 10
-10 12 -42 8 -28 -4 -37 -3 -27 4 9 6 -1 7 -30 3 -36 -6 -43 -4 -37 7 4 8 0 5
-8 -5 -9 -11 -16 -14 -16 -8 0 7 -5 12 -11 12 -5 0 -7 -5 -3 -12 5 -7 3 -8 -5
-3 -17 10 -71 13 -65 3 3 -4 0 -8 -5 -8 -6 0 -11 6 -11 13 0 9 -3 8 -9 -2 -6
-9 -11 -10 -15 -2 -5 7 -13 8 -25 1 -12 -6 -22 -5 -30 3 -10 9 -11 8 -5 -7 6
-16 5 -17 -11 -8 -15 8 -22 6 -33 -6 -7 -10 -10 -11 -6 -3 6 11 1 13 -25 8
-24 -5 -30 -3 -26 6 4 6 0 4 -8 -5 -10 -13 -16 -15 -25 -6 -9 9 -12 7 -13 -8
0 -10 -3 -14 -5 -8 -3 8 -16 9 -39 4 -21 -5 -35 -4 -35 2 0 5 -5 6 -10 3 -6
-4 -8 -10 -6 -14 3 -4 -9 -8 -27 -8 -60 -2 -78 -7 -72 -22 4 -11 3 -11 -9 -2
-11 9 -15 9 -19 -1 -4 -9 -6 -9 -6 -1 -1 9 -10 8 -36 -3 -20 -8 -40 -12 -44
-9 -5 3 -12 -2 -15 -11 -5 -14 -9 -14 -23 -3 -14 12 -16 12 -8 0 6 -11 4 -13
-8 -8 -10 4 -17 1 -17 -6 0 -8 -4 -6 -10 3 -8 13 -10 12 -10 -4 0 -16 -2 -16
-16 -6 -12 11 -15 11 -12 0 2 -7 -3 -15 -11 -18 -9 -3 -11 0 -7 9 4 8 -2 3
-13 -10 -12 -13 -21 -19 -21 -13 0 12 -61 -15 -72 -32 -5 -7 -8 -6 -8 4 -1 12
-3 12 -11 -2 -6 -11 -16 -15 -26 -11 -12 5 -14 3 -8 -7 6 -10 3 -12 -13 -8
-15 4 -22 2 -22 -7 0 -8 -5 -17 -12 -21 -7 -5 -8 -3 -3 7 8 12 6 12 -8 0 -9
-7 -17 -10 -17 -5 0 5 -5 1 -11 -10 -9 -15 -13 -16 -20 -5 -7 11 -9 10 -9 -3
0 -10 -5 -18 -11 -18 -7 0 -18 -8 -26 -17 -10 -12 -12 -13 -8 -3 4 10 2 9 -8
-2 -8 -10 -17 -15 -20 -11 -4 3 -7 0 -7 -7 0 -7 -3 -11 -6 -8 -3 3 -16 -5 -30
-19 -13 -13 -29 -21 -34 -18 -6 3 -10 -1 -10 -10 0 -9 -4 -13 -10 -10 -5 3
-10 1 -10 -4 0 -6 -6 -11 -14 -11 -7 0 -20 -8 -27 -17 -11 -15 -11 -16 1 -5 8
6 18 12 23 12 5 0 -2 -9 -17 -21 -14 -11 -31 -17 -38 -13 -7 4 -10 4 -6 0 9
-11 -14 -36 -26 -28 -5 3 -7 -2 -3 -10 3 -10 -3 -19 -19 -27 -13 -6 -23 -16
-22 -23 2 -7 -3 -12 -11 -10 -8 2 -11 -3 -8 -12 4 -10 0 -14 -13 -11 -12 2
-17 -1 -14 -10 3 -7 -4 -20 -16 -28 -12 -9 -19 -20 -15 -26 3 -6 1 -11 -4 -11
-6 0 -11 -8 -11 -17 0 -14 -2 -15 -9 -4 -7 10 -11 5 -16 -18 -3 -17 -14 -35
-23 -41 -9 -5 -13 -10 -8 -10 6 0 1 -7 -10 -16 -10 -8 -14 -13 -8 -10 6 3 11
-1 11 -8 0 -9 -7 -12 -15 -8 -11 4 -14 1 -10 -9 3 -9 -2 -20 -11 -26 -10 -6
-17 -22 -16 -35 1 -13 -6 -29 -17 -36 -10 -7 -18 -18 -18 -24 0 -7 7 -3 15 8
14 18 14 17 4 -8 -7 -16 -15 -28 -18 -28 -4 0 -8 -9 -9 -20 -4 -42 -6 -50 -12
-50 -3 0 -5 -12 -5 -27 1 -16 -3 -33 -8 -40 -5 -7 -6 -17 -2 -23 3 -5 1 -10
-4 -10 -6 0 -11 -5 -11 -11 0 -5 6 -7 13 -3 9 6 8 3 -1 -8 -17 -22 -25 -91 -9
-81 9 5 9 3 1 -8 -6 -8 -11 -23 -11 -34 0 -11 5 -26 11 -34 8 -12 8 -13 -2 -7
-10 6 -12 -1 -10 -28 1 -20 6 -36 11 -36 4 0 5 -5 2 -10 -5 -8 -12 -7 -23 2
-14 11 -14 10 1 -12 20 -29 22 -44 5 -35 -7 4 -4 -1 6 -9 11 -9 15 -16 9 -16
-13 0 -12 -32 1 -42 6 -4 4 -14 -5 -24 -12 -15 -12 -16 0 -9 11 6 13 3 9 -13
-4 -15 0 -25 10 -32 10 -5 12 -10 6 -10 -13 0 -14 -30 -1 -30 5 0 7 -9 4 -20
-3 -11 -2 -20 3 -20 4 0 6 -10 6 -22 -1 -13 4 -30 11 -39 8 -9 13 -20 12 -25
-4 -21 2 -35 11 -29 6 3 7 -1 4 -9 -3 -9 -1 -16 5 -16 6 0 10 -3 10 -7 -3 -19
2 -34 10 -29 4 3 6 -6 3 -21 -4 -20 -2 -24 8 -18 10 6 12 4 7 -8 -3 -10 -2
-17 4 -17 6 0 7 -4 4 -10 -3 -5 0 -7 8 -4 11 4 14 -2 12 -20 -2 -18 2 -26 11
-26 9 0 12 -4 9 -10 -3 -5 -1 -10 5 -10 6 0 8 -4 5 -10 -3 -5 -1 -10 4 -10 6
0 11 -5 11 -11 0 -16 26 -39 36 -31 5 4 2 -1 -5 -10 -12 -16 -11 -18 10 -19
13 0 18 -3 12 -6 -8 -3 -2 -14 17 -30 17 -13 30 -31 30 -38 0 -7 7 -16 16 -19
8 -3 12 -11 9 -16 -4 -6 -1 -9 7 -8 7 2 12 -5 12 -14 -2 -21 12 -24 19 -5 4 8
6 7 6 -3 2 -18 48 -64 74 -73 9 -4 17 -13 17 -22 0 -8 6 -14 13 -12 6 1 11 -4
9 -11 -2 -10 2 -10 18 -2 17 9 21 8 18 -2 -2 -8 2 -15 7 -17 6 -2 15 -10 20
-18 6 -8 20 -15 32 -16 12 0 19 -5 17 -9 -3 -4 2 -8 10 -8 9 0 16 -3 16 -7 0
-16 75 -53 113 -56 15 -1 21 -9 19 -28 -1 -3 5 -6 13 -6 8 0 12 4 10 8 -3 4 6
2 20 -4 14 -7 25 -16 25 -20 0 -5 5 -5 10 -2 6 4 22 -1 36 -10 13 -9 29 -13
34 -10 5 3 13 -2 18 -11 6 -10 12 -13 16 -6 7 12 46 4 46 -9 0 -5 5 -9 11 -9
5 0 7 6 3 13 -5 8 -2 8 9 -2 9 -7 17 -10 17 -6 0 4 7 2 15 -5 15 -12 91 -23
155 -22 26 1 31 -1 20 -9 -11 -8 -9 -8 10 -3 14 4 32 6 40 5 8 0 23 -1 33 -2
11 0 15 -5 10 -12 -4 -7 0 -6 10 2 13 10 20 11 31 2 11 -10 16 -9 24 5 8 15
10 15 16 -1 5 -14 9 -15 21 -5 12 10 18 10 29 1 11 -10 17 -8 25 6 6 11 11 13
11 5 0 -7 4 -11 9 -8 5 4 12 0 14 -6 3 -7 6 -4 6 7 1 17 3 17 11 5 7 -11 10
-11 10 -2 0 10 5 10 21 1 15 -8 19 -8 15 0 -5 7 1 10 16 7 13 -2 33 0 46 5 15
6 22 5 22 -3 0 -9 3 -9 11 -1 6 6 18 9 27 6 10 -4 13 -2 8 5 -9 15 -1 15 26 1
16 -8 19 -8 13 1 -5 8 -3 11 6 8 8 -3 22 -1 33 4 13 7 21 6 27 -3 7 -11 9 -10
9 5 0 16 2 17 17 5 11 -10 14 -10 9 -1 -6 10 7 17 17 10 2 -2 12 4 22 12 11 8
16 10 12 3 -8 -13 18 -12 30 2 4 4 2 5 -6 0 -9 -5 -12 -4 -7 3 4 6 13 9 20 6
8 -3 17 -1 20 5 4 6 13 8 20 5 8 -3 17 -1 20 5 4 6 14 7 23 4 12 -5 14 -3 8 7
-6 10 -4 12 8 7 10 -4 17 -1 17 6 0 8 4 6 10 -3 5 -8 10 -10 10 -5 0 6 9 16
21 23 12 8 18 9 15 3 -4 -7 -1 -8 8 -5 9 3 16 14 17 23 0 10 2 11 6 4 3 -9 10
-10 22 -3 10 5 22 6 26 2 3 -4 5 0 3 8 -2 9 5 14 17 14 11 0 27 8 36 18 9 10
19 14 23 10 4 -4 14 2 22 12 8 11 14 16 14 12 0 -5 7 -3 15 4 8 6 20 8 27 4 7
-4 10 -4 6 0 -8 10 14 36 25 29 4 -2 7 1 7 7 0 6 5 8 10 5 6 -3 10 -1 10 5 0
7 7 10 15 7 8 -4 17 -1 21 5 5 7 2 8 -7 3 -8 -4 -5 1 6 12 11 11 22 19 24 17
2 -2 13 2 25 8 11 7 24 11 28 10 4 -1 5 4 2 12 -3 8 0 17 7 22 8 5 10 3 4 -7
-9 -15 30 18 78 66 17 17 34 29 39 28 4 -2 8 2 8 8 0 5 4 7 10 4 6 -3 7 1 4 9
-6 14 5 21 28 17 4 0 4 7 1 16 -4 11 -3 14 5 9 8 -5 12 1 12 16 0 18 2 20 10
8 9 -13 14 -7 11 13 0 4 6 7 14 7 18 0 38 36 29 53 -5 7 -1 6 10 -2 9 -8 16
-10 15 -5 -4 22 2 34 17 34 8 0 13 4 9 9 -7 13 23 41 43 41 13 0 14 -2 4 -9
-17 -10 -15 -21 6 -45 9 -11 11 -16 5 -12 -16 9 -16 1 -1 -27 10 -20 10 -21
-6 -8 -14 12 -16 12 -10 -3 3 -9 10 -16 15 -16 5 0 9 -5 9 -11 0 -5 -6 -7 -12
-3 -10 6 -10 4 0 -7 6 -7 12 -19 12 -27 0 -8 -5 -10 -12 -6 -9 6 -9 3 0 -9 8
-9 11 -21 7 -27 -3 -5 0 -10 7 -10 9 0 9 -3 -2 -10 -13 -8 -8 -14 10 -12 3 0
7 -8 7 -19 1 -12 -2 -17 -10 -13 -7 4 -1 -5 13 -21 14 -16 20 -25 14 -22 -6 3
-11 0 -11 -8 0 -8 3 -14 6 -13 19 2 22 -4 11 -18 -11 -12 -11 -15 1 -12 8 2
14 -5 14 -17 0 -12 7 -20 17 -19 10 1 14 -4 11 -12 -3 -8 3 -22 14 -32 10 -9
12 -13 3 -8 -8 5 4 -9 27 -31 23 -22 39 -44 35 -48 -4 -5 1 -5 10 -2 10 3 17
3 15 -1 -1 -4 1 -8 6 -9 4 -2 18 -14 32 -28 13 -15 26 -26 29 -26 17 2 24 -1
44 -19 12 -12 22 -16 22 -10 0 6 12 2 26 -9 15 -11 30 -18 35 -15 5 3 18 0 30
-7 16 -8 20 -8 14 1 -4 7 7 4 25 -5 23 -12 30 -13 24 -3 -4 7 3 4 16 -7 13
-11 20 -14 16 -7 -4 7 -1 12 9 12 9 0 14 -4 11 -8 -3 -5 1 -9 9 -9 8 0 15 5
15 10 0 5 6 4 13 -2 8 -6 17 -8 20 -4 4 3 13 0 21 -6 11 -9 16 -9 22 0 5 8 3
9 -6 4 -9 -5 -11 -4 -6 3 5 9 14 7 32 -4 13 -9 24 -12 24 -6 0 6 -6 12 -12 15
-7 2 1 4 19 3 17 -1 29 -4 27 -8 -6 -10 69 3 84 15 16 12 16 -5 0 -23 -7 -8
-4 -7 8 3 11 9 24 14 27 10 4 -3 7 -1 7 7 0 9 3 10 13 1 10 -8 17 -7 27 2 10
10 11 9 5 -3 -6 -11 -3 -10 12 3 11 9 23 14 27 10 10 -11 37 -12 30 -2 -3 6 5
8 20 5 14 -3 26 -1 26 3 0 4 12 8 28 9 15 0 36 3 47 6 11 2 24 5 28 5 5 1 6 5
2 10 -3 5 -1 13 5 16 8 5 7 11 -1 21 -9 11 -9 18 -1 26 13 13 4 40 -12 31 -8
-5 -8 -3 0 8 6 8 9 26 8 42 -2 18 1 25 8 21 7 -5 8 -2 2 7 -13 21 -14 39 -1
39 7 0 5 5 -3 10 -8 5 -10 10 -5 10 6 0 3 5 -5 10 -11 7 -11 10 -2 10 7 0 10
5 7 10 -3 6 0 10 7 10 9 0 9 3 -2 10 -8 5 -11 10 -6 10 5 0 2 8 -5 17 -10 11
-10 14 -1 9 6 -4 12 -4 13 1 0 4 2 16 4 26 2 9 -3 24 -12 32 -13 14 -10 19 9
16 4 0 5 6 2 14 -4 8 -11 12 -18 8 -8 -5 -8 -3 0 8 6 8 9 26 8 42 -2 18 1 25
8 21 7 -5 8 -2 2 7 -13 21 -14 39 -1 39 7 0 5 5 -3 10 -8 5 -10 10 -5 10 6 0
3 5 -5 10 -11 7 -11 10 -2 10 7 0 10 5 7 10 -3 6 0 10 7 10 9 0 9 3 -2 10 -8
5 -11 10 -6 10 5 0 2 8 -5 17 -10 11 -10 14 -1 9 6 -4 12 -4 13 1 0 4 2 16 4
26 2 9 -3 24 -12 32 -9 9 -10 15 -3 15 6 0 8 5 5 10 -3 6 0 10 7 10 9 0 9 3 2
8 -12 8 -12 72 1 92 6 10 4 12 -10 6 -14 -5 -16 -4 -6 8 9 11 7 15 -11 21 -26
8 -75 17 -100 18 -9 1 -16 4 -15 7 1 3 -2 5 -6 5 -5 0 -13 8 -18 18 -6 9 -14
15 -20 12 -8 -5 -10 -1 -9 20 1 10 -25 33 -32 28 -4 -2 -5 3 -2 12 4 9 -1 22
-12 31 -18 14 -18 14 1 7 17 -6 18 -5 7 9 -17 21 -24 58 -11 58 6 0 4 7 -4 14
-11 11 -13 26 -7 55 5 28 4 41 -4 41 -7 0 -7 3 1 8 8 5 9 13 3 22 -12 18 -13
33 -2 26 4 -2 8 4 8 14 0 10 -3 17 -6 15 -3 -2 -5 16 -5 40 0 24 3 41 6 39 4
-2 5 12 2 32 -4 28 -2 35 9 29 7 -3 4 1 -6 9 -11 9 -14 16 -8 16 9 0 10 5 2
19 -12 23 -13 34 -2 27 4 -2 8 4 8 14 0 10 -3 17 -6 15 -3 -2 -5 16 -5 40 0
24 3 41 6 39 4 -2 5 12 2 32 -4 28 -2 35 9 29 7 -3 4 1 -6 9 -11 9 -14 16 -8
16 9 0 10 5 2 19 -12 23 -13 34 -2 27 4 -2 8 4 8 14 0 10 -3 17 -7 15 -3 -3
-4 15 -2 38 5 46 5 46 0 100 -2 22 1 37 7 37 6 0 4 5 -4 10 -8 5 -10 10 -4 10
14 0 13 32 -1 42 -6 5 -5 8 3 8 9 0 10 5 2 19 -12 23 -13 34 -2 27 4 -2 8 4 8
14 0 10 -3 17 -6 15 -3 -2 -5 19 -5 45 -1 27 2 47 5 45 3 -2 6 5 6 15 0 10 -3
17 -6 15 -3 -2 -6 10 -5 26 0 16 4 29 10 29 5 0 3 5 -5 10 -11 7 -11 10 -2 10
7 0 10 5 7 10 -4 6 -2 17 5 25 9 10 7 16 -7 24 -10 6 -13 11 -5 11 9 0 10 5 3
19 -6 10 -7 21 -4 25 4 4 8 17 10 29 2 17 1 19 -7 7 -8 -13 -10 -12 -10 3 0 9
6 17 13 17 9 0 8 3 -2 9 -11 7 -11 9 0 14 10 4 10 6 2 6 -7 1 -13 6 -13 12 0
5 5 7 11 3 8 -5 9 -2 1 11 -6 11 -6 30 -1 47 4 16 4 26 -1 23 -5 -3 -11 -1
-15 5 -3 5 -2 10 2 10 5 0 9 9 9 20 0 11 -4 20 -9 20 -4 0 -5 4 -2 10 12 20
14 51 3 44 -7 -5 -9 0 -6 14 3 12 1 23 -6 26 -7 3 -6 5 3 5 11 1 11 4 1 16
-10 12 -10 15 1 16 8 0 5 4 -6 9 -11 5 -14 9 -6 9 11 1 11 4 1 16 -9 11 -10
15 -1 15 8 0 7 6 -3 16 -19 19 -21 28 -3 18 8 -5 8 -2 -2 9 -11 14 -11 17 0
17 11 0 11 2 0 9 -13 9 -18 25 -23 74 -1 9 -7 17 -12 17 -6 0 -5 5 1 11 9 9 8
16 -3 27 -8 8 -13 21 -10 28 3 8 1 14 -4 14 -5 0 -6 7 -3 17 4 10 2 14 -4 10
-7 -4 -10 0 -9 10 2 10 -6 33 -16 52 -11 18 -17 40 -13 49 4 12 3 13 -10 2
-13 -11 -14 -10 -10 3 4 8 2 18 -4 21 -6 4 -8 13 -5 21 3 7 -4 18 -15 24 -12
7 -18 17 -15 26 4 8 1 15 -6 15 -6 0 -8 5 -5 10 3 6 2 10 -3 10 -12 0 -36 51
-33 70 2 8 0 12 -4 8 -10 -10 -42 25 -37 41 4 9 1 12 -6 7 -7 -4 -12 -1 -12 7
0 8 -7 18 -16 21 -9 4 -14 9 -11 13 4 3 -16 28 -44 55 -27 26 -47 48 -44 48 3
0 0 6 -7 14 -7 8 -17 13 -23 13 -5 -1 -9 4 -8 11 2 6 -3 12 -10 12 -7 0 -21
11 -31 25 -11 14 -26 23 -33 21 -8 -3 -12 -2 -8 3 5 10 -41 51 -57 51 -14 0
-38 27 -31 33 3 4 -4 5 -16 2 -13 -2 -21 1 -21 11 0 13 -12 18 -32 15 -5 0 -8
4 -8 9 0 6 -10 10 -22 10 -19 0 -20 2 -8 11 12 9 11 10 -8 6 -12 -3 -20 -1
-16 4 5 8 -9 13 -21 7 -2 -2 -11 6 -20 17 -9 11 -14 14 -10 8 3 -7 1 -13 -4
-13 -6 0 -11 7 -11 15 0 8 -6 15 -12 16 -31 2 -49 8 -64 23 -17 18 -28 21 -19
6 3 -6 -1 -7 -9 -4 -9 3 -16 10 -16 14 0 5 -9 7 -21 5 -14 -3 -19 0 -16 9 3 7
-1 13 -9 13 -7 0 -10 -5 -7 -11 3 -6 0 -5 -8 2 -7 6 -21 12 -32 12 -10 0 -15
5 -12 10 4 7 -2 9 -17 5 -15 -4 -29 -1 -36 8 -7 8 -23 13 -37 11 -14 -1 -25 3
-25 9 0 7 -5 5 -10 -3 -5 -8 -10 -10 -10 -4 0 15 -36 26 -72 24 -17 -1 -28 4
-28 12 0 10 -3 9 -10 -2 -5 -8 -10 -10 -10 -4 0 5 -11 11 -25 12 -14 1 -36 3
-50 4 -14 1 -25 7 -25 13 0 5 -5 3 -10 -5 -5 -8 -10 -10 -10 -5 0 6 -9 11 -20
12 -13 1 -18 -2 -14 -10 5 -8 3 -8 -7 1 -7 6 -22 12 -34 12 -12 0 -27 -6 -35
-12 -12 -11 -12 -10 -1 5 15 20 2 23 -18 5 -9 -8 -11 -8 -8 -2 4 7 0 14 -7 17
-8 3 -16 1 -18 -5 -3 -7 -10 -8 -18 -3 -20 12 -60 13 -60 0 0 -5 -5 -3 -10 5
-5 8 -10 11 -10 6 0 -5 -8 -2 -17 5 -9 8 -14 9 -10 3 9 -16 -18 -25 -32 -11
-9 9 -16 9 -30 0 -14 -9 -21 -9 -30 0 -6 6 -11 8 -11 4 0 -4 -9 -3 -19 3 -14
7 -22 7 -27 -1 -4 -8 -9 -7 -15 2 -7 11 -9 11 -9 1z m18 -2175 c11 5 13 2 8
-8 -4 -8 -1 -6 7 4 15 18 16 18 26 0 6 -10 11 -13 11 -6 0 6 9 10 20 8 11 -2
22 1 26 6 4 6 10 6 19 -1 17 -14 57 -22 50 -9 -4 5 -11 6 -17 3 -7 -5 -8 -2
-4 5 6 10 12 9 24 -1 10 -8 34 -14 55 -13 20 0 37 -3 37 -6 0 -8 45 -3 61 7 8
5 9 3 4 -6 -6 -10 -3 -12 13 -8 12 4 25 2 28 -4 3 -5 12 -7 20 -4 7 3 16 1 20
-5 4 -6 12 -5 22 3 12 10 14 10 8 1 -7 -13 9 -18 47 -15 9 1 17 -2 17 -8 0 -5
9 -7 20 -5 11 2 20 -2 20 -8 0 -7 4 -6 10 3 7 12 10 12 10 1 0 -8 6 -11 16 -7
10 4 13 2 8 -6 -5 -7 -2 -9 8 -5 9 3 21 0 28 -6 10 -9 11 -9 5 2 -5 9 1 7 19
-4 20 -14 26 -14 27 -4 0 10 2 11 6 2 2 -7 11 -13 19 -13 8 0 14 -5 14 -11 0
-8 6 -7 17 2 14 12 16 12 8 0 -6 -11 -4 -13 8 -8 10 3 17 2 17 -4 0 -6 5 -7
10 -4 6 3 10 1 10 -6 0 -8 5 -7 17 2 11 10 14 10 9 2 -6 -12 5 -18 26 -14 11
1 5 -22 -7 -31 -6 -5 -5 -8 3 -8 6 0 12 -5 12 -11 0 -5 -6 -7 -12 -3 -10 6
-10 5 -1 -7 10 -12 10 -18 1 -27 -8 -8 -9 -12 -1 -12 12 0 12 -18 0 -38 -5 -7
-2 -15 8 -19 16 -5 16 -7 1 -15 -13 -7 -14 -13 -4 -31 6 -12 10 -24 8 -27 -11
-20 -18 -49 -12 -55 11 -10 8 -69 -3 -77 -6 -5 -5 -11 4 -17 10 -6 11 -13 2
-29 -7 -14 -8 -23 -1 -27 7 -4 7 -13 0 -24 -5 -10 -5 -22 -1 -27 11 -11 -26
-125 -45 -140 -7 -6 -11 -14 -7 -17 3 -4 1 -7 -6 -7 -7 0 -9 -4 -6 -10 3 -5
-1 -10 -9 -10 -15 0 -21 -12 -17 -33 1 -5 -3 -6 -8 -2 -6 3 -16 -3 -23 -15 -7
-11 -17 -20 -22 -20 -12 0 -56 -48 -56 -61 0 -6 -4 -8 -8 -5 -5 3 -15 -4 -22
-15 -8 -10 -21 -19 -28 -19 -9 0 -12 -6 -8 -16 3 -8 2 -13 -3 -9 -5 3 -17 -2
-25 -11 -9 -8 -16 -13 -16 -9 0 3 -6 0 -14 -7 -8 -7 -12 -16 -10 -20 2 -3 -6
-4 -18 -1 -14 3 -18 1 -11 -4 8 -6 4 -12 -13 -20 -18 -8 -22 -8 -17 0 4 8 2 8
-9 0 -8 -7 -19 -9 -23 -5 -5 4 -5 -1 -2 -10 4 -12 2 -15 -9 -11 -7 3 -14 0
-14 -6 0 -6 -5 -11 -11 -11 -5 0 -7 6 -4 13 4 6 -3 1 -15 -13 -12 -14 -19 -19
-15 -13 4 9 1 11 -9 7 -9 -3 -13 -11 -10 -16 4 -6 -2 -8 -15 -3 -13 4 -21 2
-21 -5 0 -6 -6 -10 -12 -8 -7 3 -19 -2 -27 -10 -11 -11 -16 -11 -19 -3 -3 8
-10 5 -19 -8 -11 -17 -18 -19 -34 -11 -11 7 -19 7 -19 1 0 -5 -11 -8 -25 -7
-13 2 -22 0 -20 -5 3 -4 -3 -8 -12 -8 -56 -3 -83 -7 -83 -13 0 -5 -5 -8 -11
-8 -5 0 -7 5 -3 11 4 8 0 8 -15 0 -11 -7 -21 -8 -21 -4 0 4 -5 1 -10 -7 -8
-12 -10 -12 -10 -1 0 10 -3 11 -13 2 -10 -8 -17 -7 -25 1 -9 9 -12 9 -12 0 0
-6 -7 -9 -17 -5 -12 5 -14 3 -9 -8 4 -8 0 -5 -8 5 -9 11 -16 16 -16 10 0 -5
-18 -10 -40 -10 -22 -1 -37 3 -33 9 3 5 -4 4 -16 -2 -12 -7 -21 -8 -21 -2 0 6
-12 6 -32 0 -42 -12 -47 -11 -28 2 12 9 11 10 -7 6 -17 -4 -23 -1 -23 11 0 11
-3 13 -8 6 -11 -16 -59 -10 -84 12 -12 10 -18 13 -13 5 5 -9 -1 -8 -18 4 -15
9 -30 14 -35 11 -5 -3 -17 3 -27 14 -10 11 -24 20 -32 20 -7 0 -13 5 -13 11 0
6 -7 8 -16 5 -10 -4 -13 -2 -8 6 5 8 2 9 -9 5 -9 -3 -16 -3 -15 1 4 10 -50 61
-56 54 -3 -3 -6 0 -6 7 0 7 -5 9 -12 5 -8 -5 -9 -2 -5 10 4 9 3 15 -1 12 -11
-7 -42 30 -42 50 0 8 -4 13 -9 9 -12 -7 -33 29 -24 39 3 3 -2 6 -13 6 -15 0
-16 2 -5 9 11 7 9 10 -7 15 -13 4 -19 13 -15 22 3 7 0 14 -7 14 -6 0 -9 4 -6
9 3 4 -1 16 -8 27 -8 10 -12 24 -9 31 3 7 0 13 -7 13 -10 0 -10 3 -1 14 7 8 8
17 3 20 -5 3 -12 15 -15 26 -3 13 -1 18 6 13 7 -4 7 -1 -1 9 -10 13 -10 17 0
21 9 3 8 7 -5 12 -17 7 -17 8 0 22 10 8 12 11 4 7 -10 -5 -11 -1 -6 16 6 17 4
21 -6 14 -12 -6 -12 -5 -1 8 7 9 12 25 10 35 -2 12 2 17 12 15 12 -3 12 -1 3
9 -9 9 -10 16 -2 26 9 10 8 13 -2 13 -8 0 -6 6 7 16 10 8 13 13 7 9 -7 -3 -13
-1 -13 4 0 6 5 11 10 11 6 0 10 7 10 15 0 8 5 15 10 15 6 0 10 5 10 11 0 5 -5
7 -11 4 -6 -4 -5 2 2 13 7 12 17 19 21 16 4 -3 5 2 2 10 -3 9 -1 16 5 16 6 0
11 9 11 21 0 15 5 19 15 15 8 -3 14 -2 14 2 -1 4 -1 16 0 27 1 17 3 18 11 5 8
-12 10 -12 10 -1 0 16 46 61 63 61 9 0 9 2 1 8 -8 5 -3 14 15 27 16 12 22 14
16 4 -5 -8 1 -3 14 11 13 14 20 18 16 10 -3 -8 1 -6 10 5 9 11 19 20 23 20 4
0 6 3 5 7 -1 3 4 9 13 12 8 3 12 1 9 -4 -3 -6 1 -7 9 -4 9 3 13 11 9 17 -4 6
0 8 10 4 10 -3 17 -2 17 4 0 6 4 8 9 5 5 -3 12 1 15 10 5 14 9 14 23 3 9 -8
14 -9 11 -4 -4 6 2 17 14 24 12 7 17 8 13 1 -3 -6 8 -2 27 8 18 10 39 17 47
14 8 -3 11 0 7 7 -5 7 -1 9 9 5 8 -4 23 0 32 7 9 8 14 9 10 2 -5 -7 0 -9 13
-6 11 3 20 9 20 12 0 4 10 7 23 6 12 -1 30 2 40 7 11 6 17 5 17 -2 0 -6 5 -8
11 -4 11 7 43 12 101 18 15 1 31 5 35 9 3 4 11 3 16 -2 5 -5 16 -7 25 -4z"/>
<path d="M7310 7649 c0 -5 5 -7 10 -4 6 3 10 8 10 11 0 2 -4 4 -10 4 -5 0 -10
-5 -10 -11z"/>
<path d="M11409 10403 c-1 -5 -1 -11 -1 -14 1 -4 -14 -7 -33 -7 -18 0 -39 -3
-45 -7 -6 -4 -18 -1 -27 7 -9 7 -14 8 -10 2 9 -16 -28 -25 -43 -10 -6 6 -11 7
-10 1 5 -21 -1 -25 -19 -15 -15 7 -22 7 -28 -2 -4 -7 -21 -14 -38 -14 -45 -3
-47 -3 -40 -13 3 -6 -6 -8 -20 -5 -14 2 -25 0 -25 -5 0 -5 -6 -9 -12 -8 -36 1
-49 -4 -42 -15 5 -9 2 -9 -9 1 -15 12 -21 9 -18 -11 0 -4 -6 -5 -13 -2 -8 3
-23 1 -34 -5 -15 -8 -22 -8 -25 2 -3 6 -6 1 -6 -13 -1 -18 -4 -21 -10 -11 -7
11 -13 9 -32 -10 -16 -16 -21 -17 -16 -6 6 16 4 16 -17 2 -12 -8 -26 -12 -30
-8 -4 4 -4 0 -1 -8 5 -13 0 -16 -19 -14 -14 2 -26 -1 -26 -7 0 -6 -6 -8 -13
-5 -8 3 -20 1 -28 -5 -11 -7 -9 -8 6 -3 14 4 17 3 10 -4 -6 -6 -22 -12 -35
-15 -14 -2 -24 -9 -22 -17 2 -9 -1 -9 -14 2 -10 8 -15 9 -11 3 4 -7 -6 -17
-26 -25 -17 -7 -41 -21 -51 -31 -18 -16 -37 -22 -58 -19 -4 0 -4 -7 -1 -16 4
-10 2 -14 -4 -10 -6 4 -19 -1 -29 -10 -10 -10 -20 -18 -23 -18 -3 0 -5 -3 -4
-7 3 -7 -21 -12 -40 -9 -5 1 -6 -3 -2 -9 3 -5 -1 -10 -10 -10 -9 0 -13 -4 -10
-10 3 -5 -2 -10 -13 -10 -10 0 -28 -11 -40 -25 -12 -14 -27 -25 -33 -25 -5 0
-7 -4 -4 -10 3 -5 -1 -10 -9 -10 -9 0 -16 -7 -16 -15 0 -8 -7 -15 -15 -15 -8
0 -15 -5 -15 -11 0 -5 -4 -8 -9 -4 -5 3 -12 -4 -16 -15 -4 -11 -10 -18 -15
-15 -4 3 -11 -2 -14 -11 -3 -9 -11 -12 -18 -8 -7 4 -10 4 -6 -1 4 -4 -4 -18
-17 -31 -14 -13 -25 -28 -25 -34 0 -6 -4 -9 -9 -5 -5 3 -12 -4 -16 -15 -4 -11
-11 -18 -16 -15 -8 6 -13 -8 -10 -27 0 -4 -7 -4 -16 -1 -13 5 -15 2 -10 -11 4
-9 3 -15 -2 -11 -5 3 -19 -11 -31 -30 -12 -19 -26 -35 -31 -35 -5 0 -8 -3 -7
-7 3 -8 -20 -39 -58 -79 -12 -13 -19 -25 -16 -28 3 -4 -3 -13 -14 -21 -10 -8
-15 -15 -11 -15 4 0 2 -6 -5 -14 -7 -8 -16 -12 -20 -9 -4 2 -5 -2 -3 -10 3 -7
-4 -26 -17 -42 -12 -16 -23 -34 -23 -40 -2 -22 -18 -45 -28 -38 -6 4 -8 -2 -5
-15 4 -12 3 -20 -2 -17 -8 5 -20 -16 -26 -44 -1 -7 -11 -23 -21 -35 -11 -11
-19 -30 -19 -41 1 -11 -3 -23 -7 -26 -5 -3 -9 -14 -11 -23 -1 -10 -9 -22 -17
-27 -8 -5 -9 -9 -2 -9 8 0 8 -6 0 -24 -7 -13 -14 -23 -18 -21 -3 2 -6 -2 -6
-10 0 -8 5 -11 11 -8 5 4 -1 -9 -14 -27 -13 -18 -17 -30 -9 -25 12 8 12 7 0
-9 -8 -10 -16 -25 -17 -34 -5 -31 -9 -47 -18 -61 -7 -10 -5 -12 5 -6 10 6 9 3
-2 -11 -9 -10 -14 -24 -12 -31 2 -6 -1 -14 -7 -18 -8 -5 -7 -11 2 -23 11 -13
11 -14 -1 -7 -11 6 -13 4 -8 -8 3 -9 2 -19 -3 -22 -7 -4 -6 -13 0 -25 7 -13 7
-21 -2 -26 -7 -4 -8 -3 -4 4 11 18 0 14 -15 -5 -8 -9 -9 -14 -3 -10 7 4 14 -2
17 -13 3 -12 1 -18 -5 -14 -6 4 -8 1 -6 -7 3 -8 1 -22 -4 -33 -7 -14 -7 -16 2
-11 9 5 8 1 -1 -16 -18 -32 -17 -50 1 -74 14 -18 14 -19 -1 -7 -15 11 -17 8
-16 -31 0 -24 -3 -48 -6 -55 -4 -6 -3 -13 3 -17 7 -4 7 -12 0 -26 -7 -11 -7
-19 -1 -19 10 0 9 -19 -2 -37 -5 -8 -3 -13 3 -13 7 0 8 -6 1 -17 -5 -10 -5
-26 0 -40 6 -16 5 -23 -4 -23 -8 0 -7 -4 3 -10 8 -5 11 -10 6 -10 -5 0 -2 -8
5 -17 10 -11 10 -14 2 -9 -7 4 -13 3 -13 -1 0 -5 6 -15 13 -22 10 -11 10 -13
0 -7 -8 5 -13 1 -13 -9 0 -9 4 -14 9 -10 6 3 8 -4 6 -16 -3 -13 0 -28 6 -35 7
-8 7 -14 -1 -19 -8 -5 -7 -11 2 -23 11 -12 11 -16 0 -20 -10 -3 -8 -8 5 -19
10 -8 12 -12 6 -8 -7 3 -13 1 -13 -4 0 -6 5 -11 10 -11 6 0 10 -5 10 -11 0 -5
-6 -7 -12 -3 -9 6 -9 3 0 -9 8 -9 11 -21 7 -27 -3 -5 -2 -10 3 -10 6 0 8 -9 5
-20 -3 -11 0 -20 6 -20 5 0 8 -6 5 -14 -3 -8 -1 -17 5 -21 8 -4 8 -12 0 -27
-8 -15 -8 -19 0 -14 6 4 11 2 11 -4 0 -6 5 -8 12 -4 7 4 8 3 4 -5 -4 -6 -12
-9 -17 -6 -5 3 -6 -1 -3 -9 3 -9 9 -16 13 -16 4 0 8 -6 8 -12 0 -7 4 -22 9
-32 6 -15 4 -17 -7 -11 -8 5 -5 -2 6 -14 11 -13 19 -25 18 -27 -7 -10 -2 -25
6 -20 4 3 7 -6 5 -19 -1 -14 2 -25 6 -25 5 0 7 -9 5 -20 -2 -11 1 -23 7 -26 7
-5 8 -2 3 6 -5 8 -4 11 3 7 5 -4 9 -15 8 -24 -2 -10 3 -24 11 -31 7 -8 11 -18
8 -23 -4 -5 -1 -9 4 -9 6 0 11 -9 11 -20 0 -11 5 -20 11 -20 8 0 7 -6 -2 -17
-8 -9 -9 -14 -3 -10 7 4 18 -1 25 -10 11 -13 11 -15 1 -9 -11 7 -11 4 0 -13 7
-12 16 -21 21 -21 4 0 6 -4 2 -9 -3 -5 2 -16 10 -24 8 -9 15 -21 15 -27 0 -6
5 -8 13 -4 9 6 9 4 -1 -8 -9 -11 -10 -18 -2 -23 5 -3 10 -3 10 2 1 4 7 -3 14
-16 8 -14 11 -32 8 -40 -3 -8 -1 -12 4 -8 6 3 16 2 24 -4 11 -6 12 -9 2 -9 -7
0 -10 -5 -7 -10 4 -6 11 -7 17 -4 6 4 8 2 4 -4 -3 -6 -2 -13 4 -17 6 -4 8 -10
5 -15 -3 -5 0 -12 6 -16 8 -5 10 -2 5 7 -4 8 -1 5 8 -5 8 -10 13 -22 11 -27
-3 -4 4 -11 16 -14 17 -6 19 -9 8 -16 -11 -7 -10 -9 5 -9 11 0 16 -3 13 -6 -3
-4 7 -19 24 -35 17 -16 32 -36 33 -44 2 -17 53 -65 68 -65 5 0 7 -4 4 -9 -3
-5 5 -17 19 -27 13 -10 22 -21 19 -26 -3 -4 5 -8 17 -8 12 0 20 -3 16 -6 -7
-8 36 -53 46 -47 4 2 7 -3 7 -11 0 -8 5 -18 12 -22 7 -5 8 -2 3 7 -4 8 1 5 12
-6 11 -11 18 -24 15 -29 -3 -5 0 -6 7 -2 6 4 14 0 17 -8 3 -9 10 -14 14 -11 4
2 16 -7 26 -20 10 -14 25 -25 32 -25 7 0 15 -7 18 -15 4 -8 10 -12 15 -9 5 3
9 0 9 -6 0 -6 5 -8 10 -5 6 3 10 -1 10 -9 0 -9 7 -16 16 -16 8 0 13 -4 9 -9
-3 -6 4 -8 15 -6 11 2 18 0 15 -6 -6 -8 8 -13 27 -10 4 0 12 -8 18 -19 6 -11
15 -18 21 -15 5 4 9 1 9 -4 0 -6 7 -11 15 -11 8 0 15 -4 15 -10 0 -5 9 -10 20
-10 11 0 20 -7 20 -16 0 -8 5 -12 11 -9 5 4 19 -1 29 -10 10 -9 24 -14 29 -10
6 3 11 -1 11 -9 0 -9 7 -13 20 -11 11 2 20 -1 20 -6 0 -6 5 -7 10 -4 6 3 10
-2 11 -12 0 -11 3 -13 6 -5 3 9 13 6 36 -10 17 -12 27 -17 23 -10 -5 8 -2 10
8 6 9 -3 13 -11 9 -17 -4 -6 0 -8 10 -4 10 3 17 2 17 -4 0 -6 5 -7 10 -4 6 3
17 0 25 -9 8 -8 24 -13 36 -11 11 2 22 -2 25 -10 5 -11 11 -12 26 -4 15 8 19
8 14 0 -7 -10 12 -16 42 -12 6 1 12 -3 12 -9 0 -6 5 -8 10 -5 6 3 10 2 10 -3
0 -5 14 -8 30 -7 17 1 30 -1 30 -6 0 -5 12 -9 26 -9 17 0 23 4 18 13 -4 6 3 2
15 -10 24 -25 41 -30 41 -10 0 9 3 8 9 -2 5 -7 14 -10 20 -7 6 4 11 3 11 -1 0
-5 158 -9 350 -9 201 0 350 4 350 9 0 5 7 7 15 3 8 -3 15 0 15 7 0 8 4 7 10
-3 6 -9 13 -11 18 -5 4 6 14 11 22 11 8 1 29 5 45 9 17 4 38 7 48 6 9 0 15 4
12 9 -3 6 1 7 9 4 10 -4 16 -1 16 7 0 10 3 10 11 2 9 -9 18 -7 37 5 15 9 27
16 29 15 10 -9 23 -1 17 10 -5 8 -2 8 9 -2 15 -12 17 -11 18 5 0 12 3 14 6 6
4 -10 10 -9 26 5 11 10 17 12 13 6 -4 -7 -3 -13 2 -13 6 0 12 7 16 15 3 8 10
15 16 15 6 0 8 -6 5 -12 -4 -7 1 -4 9 6 9 11 16 16 16 12 0 -5 6 -3 14 3 11 9
15 9 19 -1 3 -8 6 -6 6 6 1 12 6 16 17 12 11 -4 15 -2 11 8 -4 10 1 13 19 11
13 -1 24 2 24 6 0 5 7 9 16 9 9 0 12 5 8 13 -6 9 -4 9 8 -1 13 -10 17 -10 22
3 3 8 11 14 18 13 7 -2 12 2 11 9 -2 7 4 10 12 7 8 -4 15 -1 15 7 0 7 3 10 6
6 4 -3 13 1 21 9 9 8 22 13 29 10 8 -3 13 0 11 7 -1 7 4 11 11 10 6 -2 12 2
12 8 0 5 3 8 8 6 10 -7 32 19 24 27 -3 4 1 4 11 0 10 -3 17 -1 17 5 0 6 7 11
15 11 8 0 15 4 15 10 0 5 11 12 25 16 13 3 23 11 22 18 -1 6 4 10 11 9 6 -2
12 2 12 8 0 5 4 8 9 5 5 -3 12 1 15 10 3 8 11 12 17 8 7 -4 9 -3 6 3 -4 6 1
17 10 24 14 12 16 12 8 -1 -8 -13 -7 -13 8 -1 9 7 17 20 17 27 0 8 6 11 17 7
11 -4 14 -3 9 5 -4 7 -1 12 9 12 9 0 14 4 11 9 -3 4 6 13 19 19 14 7 25 16 25
22 0 6 5 8 12 4 7 -4 8 -3 4 4 -4 6 5 18 19 28 13 9 22 20 19 25 -3 5 -2 8 3
7 14 -5 56 40 49 51 -5 7 -1 8 10 4 12 -4 15 -3 10 5 -4 7 -1 12 9 12 9 0 14
4 11 9 -3 5 1 12 10 15 9 3 12 11 8 18 -5 8 -2 9 10 5 9 -4 14 -3 11 2 -3 5 6
22 20 36 13 15 27 36 30 46 4 11 10 17 15 14 4 -2 13 9 20 25 7 17 20 30 29
31 9 0 11 3 4 5 -7 3 -9 12 -6 20 5 13 7 13 14 2 6 -9 9 -7 9 10 0 13 6 22 15
22 9 0 12 6 9 15 -4 8 -1 15 5 15 6 0 10 6 8 13 -1 6 4 11 10 10 7 -2 12 0 12
5 -4 21 2 32 14 26 9 -5 9 -4 0 6 -9 10 -8 16 3 27 8 8 11 20 7 26 -4 7 0 7
10 -1 14 -12 15 -11 11 13 -3 15 -1 24 5 21 5 -3 12 1 15 10 3 8 2 12 -4 9 -6
-3 -7 1 -4 9 3 9 10 14 14 11 4 -3 11 11 14 30 5 22 11 33 18 29 7 -5 8 -2 4
5 -5 7 0 21 10 32 13 15 14 19 3 19 -8 1 -3 7 11 15 14 8 19 14 11 15 -11 0
-12 3 -4 11 6 6 9 19 5 28 -5 14 -3 14 11 3 14 -12 15 -11 7 17 -6 20 -5 33 2
37 7 5 8 2 3 -6 -5 -8 -4 -11 3 -6 6 4 8 14 5 23 -4 10 -2 14 4 10 11 -7 11
22 0 41 -6 8 -3 10 10 5 10 -3 15 -3 11 2 -4 4 -3 14 3 22 9 9 8 13 0 13 -6 0
-2 9 10 21 15 15 18 24 9 34 -8 10 -8 14 2 18 10 4 10 6 0 6 -10 1 -10 5 2 17
19 18 21 38 4 28 -7 -4 -5 1 4 12 13 14 14 23 6 38 -8 15 -8 17 2 11 10 -6 12
-2 8 13 -4 12 -2 22 2 22 5 0 7 8 5 18 -1 9 3 23 9 31 9 12 8 13 -2 7 -11 -7
-12 -4 -3 12 6 12 11 25 10 29 -1 4 0 10 1 13 6 16 5 48 -1 44 -4 -2 -11 1
-15 7 -4 7 -3 9 3 6 6 -4 17 1 24 10 12 15 12 16 -3 10 -22 -8 -23 -3 -2 17 8
9 12 16 7 16 -10 0 -8 63 2 79 3 6 3 11 -2 11 -9 0 -9 72 0 87 3 5 2 15 -3 23
-5 9 -5 19 2 27 6 8 7 13 1 13 -12 0 -11 39 1 59 6 9 5 12 0 8 -6 -3 -16 -2
-24 4 -12 7 -12 9 4 9 16 0 17 2 5 17 -10 11 -10 14 -1 9 6 -4 12 -2 12 3 0 6
-4 11 -9 11 -6 0 -8 9 -6 20 2 11 -1 22 -7 26 -6 4 -5 10 3 15 12 7 12 9 0 9
-11 0 -11 3 -1 15 10 12 10 15 -4 15 -9 0 -16 5 -16 11 0 5 4 8 8 5 5 -3 9 1
9 9 0 8 -4 12 -9 9 -4 -3 -8 0 -8 5 0 6 6 11 13 11 9 0 8 3 -2 9 -7 5 -15 26
-17 47 -2 20 -8 41 -15 44 -8 6 -8 9 0 15 8 4 9 11 3 18 -5 7 -13 27 -17 45
-3 17 -12 32 -18 32 -6 0 -2 6 8 14 18 13 18 14 -3 25 -12 6 -21 15 -20 19 1
4 -3 17 -10 29 -8 14 -9 24 -2 28 6 4 1 15 -11 28 -11 12 -18 30 -16 39 3 9
-2 19 -11 23 -8 3 -12 8 -9 12 4 3 -5 25 -18 48 -28 47 -31 59 -12 50 6 -4 3
2 -8 12 -19 18 -27 35 -28 60 0 7 -5 9 -10 6 -7 -4 -8 1 -3 12 5 15 4 16 -8 6
-13 -11 -15 -9 -11 8 2 11 -2 26 -9 33 -7 7 -19 27 -26 45 -8 17 -18 29 -22
27 -7 -5 -12 18 -9 38 0 4 -7 4 -16 1 -10 -4 -14 -2 -10 4 3 5 -3 19 -13 31
-11 12 -20 24 -20 28 0 4 -8 13 -17 21 -10 8 -12 12 -6 8 9 -4 11 -1 7 9 -3 9
-10 13 -15 10 -5 -3 -9 1 -9 8 0 8 -9 20 -20 28 -11 8 -20 20 -20 28 0 7 -7
15 -15 18 -8 4 -12 11 -8 17 3 6 1 7 -5 3 -8 -4 -16 3 -22 18 -5 14 -12 26
-15 26 -4 0 -3 -5 1 -12 4 -7 3 -8 -4 -4 -7 4 -12 12 -12 17 0 14 -26 39 -40
39 -7 0 -9 7 -6 17 4 10 4 15 1 11 -3 -3 -23 11 -43 31 -20 21 -49 45 -64 55
-16 10 -28 25 -28 32 0 8 -8 14 -18 14 -10 0 -24 9 -32 20 -8 11 -19 20 -25
20 -6 0 -16 9 -23 20 -7 11 -17 20 -23 20 -6 0 -17 7 -26 15 -8 8 -19 12 -25
9 -6 -4 -9 -3 -6 2 6 11 -28 45 -36 36 -3 -3 -6 0 -6 7 0 7 -4 10 -8 7 -12 -7
-54 23 -47 35 3 5 0 6 -8 3 -8 -3 -21 2 -30 10 -9 9 -23 16 -31 16 -9 0 -16 4
-16 8 0 12 -59 44 -70 37 -6 -3 -10 -2 -10 4 0 6 -10 15 -21 22 -17 9 -20 8
-13 -3 4 -7 -2 -5 -13 5 -11 9 -23 14 -26 10 -4 -3 -7 -1 -7 6 0 7 -4 9 -10 6
-5 -3 -10 -1 -10 5 0 6 -4 8 -10 5 -5 -3 -10 -1 -10 6 0 7 -10 9 -25 7 -14 -3
-23 -1 -22 6 1 5 -6 10 -16 11 -10 0 -22 7 -27 15 -6 9 -10 10 -10 3 0 -7 -7
-10 -15 -7 -8 4 -12 11 -8 18 4 6 0 6 -9 -2 -13 -10 -18 -10 -24 -1 -5 8 -3 9
6 4 9 -5 11 -4 6 3 -4 8 -15 8 -31 2 -18 -7 -24 -6 -22 3 1 7 -4 11 -10 10 -7
-2 -13 2 -13 8 0 8 -4 8 -13 0 -8 -6 -18 -7 -23 -3 -5 5 -22 14 -37 20 -23 10
-27 10 -21 0 5 -7 -5 -5 -20 6 -16 10 -25 13 -22 7 5 -7 1 -9 -8 -5 -9 3 -16
11 -16 18 0 7 -3 6 -9 -2 -6 -11 -11 -10 -25 3 -9 9 -16 12 -16 6 0 -6 -5 -11
-11 -11 -5 0 -8 4 -5 8 2 4 -11 7 -30 7 -19 -1 -34 1 -34 5 0 3 -15 5 -32 4
-18 -1 -41 2 -51 8 -13 7 -17 7 -13 0 4 -6 -2 -8 -14 -5 -11 3 -18 9 -15 13 3
5 -4 6 -15 3 -11 -3 -20 -10 -20 -17 0 -6 -4 -5 -9 3 -5 8 -16 11 -25 8 -9 -4
-16 -3 -16 2 0 4 -7 8 -15 8 -8 0 -15 -4 -15 -9 0 -5 -9 -4 -20 2 -11 6 -20 7
-20 2 0 -10 -36 -9 -46 1 -4 4 -13 2 -21 -4 -7 -6 -13 -7 -13 -2 0 5 -7 10
-15 10 -8 0 -15 -5 -15 -10 0 -6 -3 -7 -6 -4 -4 3 -16 2 -27 -4 -13 -7 -17 -7
-13 -1 3 6 2 13 -3 16 -5 3 -12 -1 -15 -9 -4 -13 -10 -14 -26 -5 -13 7 -20 7
-20 1 0 -6 -7 -8 -15 -5 -8 4 -12 10 -9 15 3 5 3 9 0 9 -3 0 -7 -3 -7 -7z
m-1669 -1233 c0 -5 -5 -10 -11 -10 -5 0 -7 5 -4 10 3 6 8 10 11 10 2 0 4 -4 4
-10z m3933 -1405 c-3 -9 -8 -14 -10 -11 -3 3 -2 9 2 15 9 16 15 13 8 -4z
m-3608 -843 c-3 -3 -11 0 -18 7 -9 10 -8 11 6 5 10 -3 15 -9 12 -12z"/>
<path d="M13556 9167 c3 -10 9 -15 12 -12 3 3 0 11 -7 18 -10 9 -11 8 -5 -6z"/>
<path d="M5530 7336 c0 -2 8 -10 18 -17 15 -13 16 -12 3 4 -13 16 -21 21 -21
13z"/>
<path d="M14303 7265 c0 -8 4 -12 9 -9 5 3 6 10 3 15 -9 13 -12 11 -12 -6z"/>
</g>
</svg>
